<svg width="344" height="292" viewBox="0 0 344 292" fill="none" xmlns="http://www.w3.org/2000/svg">
<path d="M175.701 268.401C225.119 268.401 265.179 262.07 265.179 254.259C265.179 246.449 225.119 240.117 175.701 240.117C126.284 240.117 86.2231 246.449 86.2231 254.259C86.2231 262.07 126.284 268.401 175.701 268.401Z" fill="#D3D3D3"/>
<path d="M220.793 256.012H130.609C125.298 256.012 120.992 251.706 120.992 246.395V48.6349C120.992 43.3234 125.298 39.0176 130.609 39.0176H220.793C226.104 39.0176 230.41 43.3234 230.41 48.6349V246.395C230.411 251.706 226.105 256.012 220.793 256.012Z" fill="#0C486F"/>
<path d="M193.755 48.8652H159.288V52.6951H193.755V48.8652Z" fill="#1F313D"/>
<path d="M176.795 251.017C181.781 251.017 185.822 246.975 185.822 241.99C185.822 237.004 181.781 232.963 176.795 232.963C171.81 232.963 167.769 237.004 167.769 241.99C167.769 246.975 171.81 251.017 176.795 251.017Z" fill="#1F313D"/>
<path d="M222.752 59.2598H130.84V144.861H222.752V59.2598Z" fill="#D3D3D3"/>
<path d="M173.484 92.0428C176.877 92.0428 179.627 89.2927 179.627 85.9003C179.627 82.5079 176.877 79.7578 173.484 79.7578C170.092 79.7578 167.342 82.5079 167.342 85.9003C167.342 89.2927 170.092 92.0428 173.484 92.0428Z" fill="#F3F3F3"/>
<path d="M222.752 144.859H130.84V227.763H222.752V144.859Z" fill="#F7F7F5"/>
<path d="M209.257 178.051H144.334V181.881H209.257V178.051Z" fill="#D3D3D3"/>
<path d="M162.691 186.314H144.454V190.144H162.691V186.314Z" fill="#2995F5"/>
<path d="M185.974 186.314H167.737V190.144H185.974V186.314Z" fill="#2995F5"/>
<path d="M209.257 186.314H191.02V190.144H209.257V186.314Z" fill="#2995F5"/>
<path d="M158.583 200.301H130.84V227.766H158.583V200.301Z" fill="#D3D3D3"/>
<path d="M222.752 200.301H163.594V227.766H222.752V200.301Z" fill="#D3D3D3"/>
<path d="M222.751 144.859H217.322V200.298H222.751V144.859Z" fill="#EAEAE8"/>
<path d="M188.827 109.413L158.582 91.8418L130.84 112.103V144.861L188.827 109.413Z" fill="#F2F2F2"/>
<path d="M130.84 144.861L200.138 88.0117L222.752 110.805V144.861H130.84Z" fill="#F3F3F3"/>
<path d="M227.576 164.983C231.511 164.983 234.701 161.793 234.701 157.858C234.701 153.923 231.511 150.732 227.576 150.732C223.641 150.732 220.451 153.923 220.451 157.858C220.451 161.793 223.641 164.983 227.576 164.983Z" fill="#2A94F5"/>
<path d="M231.81 155.263C230.419 152.421 227.576 156.292 227.576 156.292C227.576 156.292 224.733 152.421 223.342 155.263C221.951 158.106 227.576 161.494 227.576 161.494C227.576 161.494 233.201 158.106 231.81 155.263Z" fill="white"/>
<path d="M117.335 132.581C119.608 130.308 119.608 126.622 117.335 124.349C115.062 122.076 111.377 122.076 109.104 124.349C106.831 126.622 106.831 130.308 109.104 132.581C111.377 134.854 115.062 134.854 117.335 132.581Z" fill="#2A94F5"/>
<path d="M116.68 126.344C115.543 124.022 113.221 127.184 113.221 127.184C113.221 127.184 110.898 124.022 109.762 126.344C108.625 128.667 113.221 131.434 113.221 131.434C113.221 131.434 117.816 128.667 116.68 126.344Z" fill="white"/>
<path d="M268.141 73.6729C270.428 73.6729 272.282 71.8189 272.282 69.5318C272.282 67.2447 270.428 65.3906 268.141 65.3906C265.854 65.3906 264 67.2447 264 69.5318C264 71.8189 265.854 73.6729 268.141 73.6729Z" fill="#2A94F5"/>
<path d="M270.601 68.0262C269.793 66.3741 268.14 68.6236 268.14 68.6236C268.14 68.6236 266.488 66.3735 265.679 68.0262C264.87 69.6783 268.14 71.647 268.14 71.647C268.14 71.647 271.41 69.6783 270.601 68.0262Z" fill="white"/>
<path d="M84.1024 182.169C86.3755 179.895 86.3755 176.21 84.1024 173.937C81.8293 171.664 78.1438 171.664 75.8707 173.937C73.5976 176.21 73.5976 179.895 75.8707 182.169C78.1438 184.442 81.8293 184.442 84.1024 182.169Z" fill="#2A94F5"/>
<path d="M83.4474 175.934C82.3109 173.611 79.9884 176.774 79.9884 176.774C79.9884 176.774 77.6658 173.612 76.5293 175.934C75.3929 178.256 79.9884 181.024 79.9884 181.024C79.9884 181.024 84.5839 178.256 83.4474 175.934Z" fill="white"/>
<path d="M107.874 153.415C110.147 151.142 110.147 147.456 107.874 145.183C105.601 142.91 101.916 142.91 99.6427 145.183C97.3696 147.456 97.3696 151.142 99.6427 153.415C101.916 155.688 105.601 155.688 107.874 153.415Z" fill="#2A94F5"/>
<path d="M107.219 147.18C106.082 144.857 103.76 148.02 103.76 148.02C103.76 148.02 101.437 144.857 100.301 147.18C99.1644 149.503 103.76 152.27 103.76 152.27C103.76 152.27 108.355 149.503 107.219 147.18Z" fill="white"/>
<path d="M274.21 142.78C281.073 142.78 286.637 137.216 286.637 130.353C286.637 123.49 281.073 117.926 274.21 117.926C267.346 117.926 261.783 123.49 261.783 130.353C261.783 137.216 267.346 142.78 274.21 142.78Z" fill="#2A94F5"/>
<path d="M281.594 125.829C279.168 120.87 274.209 127.622 274.209 127.622C274.209 127.622 269.251 120.87 266.824 125.829C264.398 130.787 274.209 136.695 274.209 136.695C274.209 136.695 284.021 130.787 281.594 125.829Z" fill="white"/>
<path d="M109.24 112.117C110.061 107.083 106.646 102.336 101.612 101.515C96.5783 100.694 91.8319 104.109 91.0107 109.143C90.1896 114.177 93.6047 118.923 98.6387 119.745C103.673 120.566 108.419 117.151 109.24 112.117Z" fill="#2A94F5"/>
<path d="M105.607 107.268C103.804 103.583 100.119 108.6 100.119 108.6C100.119 108.6 96.4349 103.583 94.6315 107.268C92.8281 110.952 100.119 115.343 100.119 115.343C100.119 115.343 107.411 110.952 105.607 107.268Z" fill="white"/>
<path d="M268.783 173.495C273.934 167.255 273.051 158.022 266.812 152.871C260.572 147.72 251.338 148.603 246.188 154.843C241.037 161.082 241.92 170.316 248.16 175.467C254.399 180.617 263.633 179.734 268.783 173.495Z" fill="#0C548F"/>
<path d="M266.727 163.685C266.727 162.915 266.103 162.291 265.333 162.291H260.11V157.451C260.11 156.046 258.972 154.908 257.567 154.908C257.567 154.908 257.004 157.311 256.308 158.416L252.728 165.353V173.447H263.282C264.052 173.447 264.677 172.822 264.677 172.052C264.677 171.282 264.052 170.658 263.282 170.658H264.157C264.927 170.658 265.552 170.033 265.552 169.263C265.552 168.493 264.927 167.868 264.157 167.868H264.895C265.665 167.868 266.29 167.244 266.29 166.474C266.29 165.703 265.665 165.079 264.895 165.079H265.333C266.103 165.08 266.727 164.455 266.727 163.685Z" fill="white"/>
<path d="M251.853 165.354H248.244V173.447H251.853V165.354Z" fill="white"/>
<path d="M122.663 218.296C129.046 218.296 134.22 213.122 134.22 206.739C134.22 200.356 129.046 195.182 122.663 195.182C116.28 195.182 111.105 200.356 111.105 206.739C111.105 213.122 116.28 218.296 122.663 218.296Z" fill="#0C548F"/>
<path d="M129.954 206.352C129.954 205.745 129.461 205.252 128.854 205.252H124.733V201.434C124.733 200.326 123.835 199.428 122.727 199.428C122.727 199.428 122.284 201.323 121.734 202.195L118.909 207.667V214.052H127.236C127.843 214.052 128.336 213.56 128.336 212.952C128.336 212.344 127.844 211.852 127.236 211.852H127.926C128.534 211.852 129.026 211.359 129.026 210.752C129.026 210.144 128.534 209.651 127.926 209.651H128.508C129.116 209.651 129.609 209.159 129.609 208.551C129.609 207.944 129.116 207.451 128.508 207.451H128.854C129.461 207.452 129.954 206.96 129.954 206.352Z" fill="white"/>
<path d="M118.22 207.668H115.372V214.053H118.22V207.668Z" fill="white"/>
<path d="M277.276 97.042C280.036 94.2822 280.036 89.8077 277.276 87.0479C274.516 84.2881 270.042 84.2881 267.282 87.0479C264.522 89.8077 264.522 94.2822 267.282 97.042C270.042 99.8018 274.516 99.8018 277.276 97.042Z" fill="#0C548F"/>
<path d="M276.74 91.8063C276.74 91.4348 276.438 91.1335 276.067 91.1335H273.548V88.7987C273.548 88.1212 272.999 87.5723 272.321 87.5723C272.321 87.5723 272.05 88.7315 271.714 89.2641L269.986 92.6104V96.5145H275.078C275.449 96.5145 275.75 96.2131 275.75 95.8417C275.75 95.4703 275.449 95.1689 275.078 95.1689H275.5C275.871 95.1689 276.173 94.8676 276.173 94.4962C276.173 94.1247 275.871 93.8234 275.5 93.8234H275.856C276.228 93.8234 276.529 93.5221 276.529 93.1506C276.529 92.7792 276.228 92.4779 275.856 92.4779H276.067C276.438 92.479 276.74 92.1777 276.74 91.8063Z" fill="white"/>
<path d="M269.565 92.6113H267.824V96.5154H269.565V92.6113Z" fill="white"/>
<path d="M105.115 172.886C107.875 170.126 107.875 165.651 105.115 162.892C102.355 160.132 97.8809 160.132 95.1211 162.892C92.3613 165.651 92.3613 170.126 95.1211 172.886C97.8809 175.646 102.355 175.646 105.115 172.886Z" fill="#0C548F"/>
<path d="M104.578 167.652C104.578 167.281 104.276 166.979 103.905 166.979H101.385V164.644C101.385 163.967 100.836 163.418 100.159 163.418C100.159 163.418 99.8875 164.577 99.5517 165.11L97.8242 168.456V172.36H102.916C103.287 172.36 103.588 172.059 103.588 171.687C103.588 171.316 103.287 171.015 102.916 171.015H103.338C103.709 171.015 104.011 170.713 104.011 170.342C104.011 169.97 103.709 169.669 103.338 169.669H103.694C104.065 169.669 104.367 169.368 104.367 168.996C104.367 168.625 104.065 168.324 103.694 168.324H103.905C104.276 168.325 104.578 168.023 104.578 167.652Z" fill="white"/>
<path d="M97.402 168.457H95.6611V172.361H97.402V168.457Z" fill="white"/>
<path d="M212.917 53.8642C215.677 51.1044 215.677 46.6299 212.917 43.8701C210.158 41.1103 205.683 41.1103 202.923 43.8701C200.164 46.6299 200.164 51.1044 202.923 53.8643C205.683 56.6241 210.158 56.6241 212.917 53.8642Z" fill="#0C548F"/>
<path d="M212.38 48.6285C212.38 48.2571 212.079 47.9558 211.707 47.9558H209.188V45.6209C209.188 44.9435 208.639 44.3945 207.961 44.3945C207.961 44.3945 207.69 45.5538 207.354 46.0864L205.626 49.4327V53.3367H210.718C211.089 53.3367 211.391 53.0354 211.391 52.664C211.391 52.2925 211.089 51.9912 210.718 51.9912H211.14C211.511 51.9912 211.813 51.6899 211.813 51.3184C211.813 50.947 211.511 50.6457 211.14 50.6457H211.496C211.868 50.6457 212.169 50.3443 212.169 49.9729C212.169 49.6015 211.868 49.3001 211.496 49.3001H211.707C212.079 49.3013 212.38 49 212.38 48.6285Z" fill="white"/>
<path d="M205.204 49.4336H203.463V53.3376H205.204V49.4336Z" fill="white"/>
<path d="M163.52 43.9628C166.029 43.9628 168.063 41.9289 168.063 39.4199C168.063 36.9109 166.029 34.877 163.52 34.877C161.011 34.877 158.978 36.9109 158.978 39.4199C158.978 41.9289 161.011 43.9628 163.52 43.9628Z" fill="#0C548F"/>
<path d="M166.387 39.265C166.387 39.0261 166.193 38.8322 165.955 38.8322H164.335V37.3314C164.335 36.8957 163.982 36.543 163.547 36.543C163.547 36.543 163.372 37.2881 163.156 37.631L162.046 39.7824V42.2924H165.319C165.558 42.2924 165.751 42.0986 165.751 41.8597C165.751 41.6208 165.558 41.427 165.319 41.427H165.591C165.83 41.427 166.023 41.2337 166.023 40.9942C166.023 40.7554 165.83 40.5621 165.591 40.5621H165.82C166.059 40.5621 166.252 40.3682 166.252 40.1293C166.252 39.8905 166.059 39.6972 165.82 39.6972H165.955C166.193 39.6977 166.387 39.5038 166.387 39.265Z" fill="white"/>
<path d="M161.774 39.7812H160.655V42.2913H161.774V39.7812Z" fill="white"/>
<path d="M130.453 174.243C137.387 174.243 143.009 168.621 143.009 161.687C143.009 154.752 137.387 149.131 130.453 149.131C123.518 149.131 117.897 154.752 117.897 161.687C117.897 168.621 123.518 174.243 130.453 174.243Z" fill="#FFBE56"/>
<path d="M138.244 162.531C138.244 166.834 134.756 170.322 130.453 170.322C126.15 170.322 122.663 166.834 122.663 162.531H138.244Z" fill="#2A94F5"/>
<path d="M127.942 160.047C127.714 160.047 127.511 159.886 127.468 159.654C127.131 157.875 126.133 156.633 125.04 156.633C123.944 156.633 122.949 157.875 122.617 159.653C122.568 159.915 122.316 160.084 122.054 160.04C121.792 159.991 121.619 159.739 121.668 159.477C122.092 157.199 123.448 155.668 125.04 155.668C126.63 155.668 127.987 157.199 128.417 159.476C128.467 159.738 128.294 159.99 128.032 160.04C128.001 160.044 127.972 160.047 127.942 160.047Z" fill="#30201D"/>
<path d="M138.764 160.049C138.536 160.049 138.334 159.887 138.29 159.656C137.953 157.877 136.955 156.634 135.861 156.634C134.766 156.634 133.77 157.876 133.439 159.654C133.39 159.916 133.139 160.085 132.875 160.04C132.613 159.991 132.44 159.739 132.489 159.477C132.914 157.199 134.27 155.668 135.862 155.668C137.452 155.668 138.809 157.199 139.239 159.476C139.289 159.738 139.117 159.99 138.854 160.04C138.824 160.046 138.794 160.049 138.764 160.049Z" fill="#30201D"/>
<path d="M237.64 81.2721C241.719 81.2721 245.025 77.9661 245.025 73.888C245.025 69.8099 241.719 66.5039 237.64 66.5039C233.562 66.5039 230.256 69.8099 230.256 73.888C230.256 77.9661 233.562 81.2721 237.64 81.2721Z" fill="#FFBE56"/>
<path d="M242.222 74.3809C242.222 76.9113 240.171 78.9623 237.641 78.9623C235.11 78.9623 233.059 76.9113 233.059 74.3809H242.222Z" fill="#2A94F5"/>
<path d="M236.163 72.9237C236.029 72.9237 235.91 72.8291 235.884 72.6924C235.686 71.6465 235.099 70.9159 234.456 70.9159C233.812 70.9159 233.226 71.6459 233.031 72.6918C233.002 72.846 232.854 72.9453 232.7 72.919C232.546 72.8904 232.444 72.7421 232.473 72.5879C232.722 71.2482 233.52 70.3477 234.456 70.3477C235.391 70.3477 236.189 71.2476 236.442 72.5867C236.471 72.7409 236.37 72.8892 236.215 72.9184C236.198 72.9219 236.18 72.9237 236.163 72.9237Z" fill="#30201D"/>
<path d="M242.527 72.9237C242.393 72.9237 242.274 72.8291 242.248 72.6924C242.051 71.6465 241.464 70.9159 240.821 70.9159C240.176 70.9159 239.591 71.6459 239.396 72.6918C239.367 72.8454 239.219 72.9453 239.065 72.919C238.91 72.8904 238.809 72.7421 238.837 72.5873C239.087 71.2476 239.884 70.3477 240.821 70.3477C241.756 70.3477 242.554 71.2476 242.807 72.5867C242.836 72.7409 242.734 72.8892 242.58 72.9184C242.562 72.9219 242.545 72.9237 242.527 72.9237Z" fill="#30201D"/>
<path d="M88.3382 89.7359C91.429 89.7359 93.9346 87.2303 93.9346 84.1394C93.9346 81.0486 91.429 78.543 88.3382 78.543C85.2473 78.543 82.7417 81.0486 82.7417 84.1394C82.7417 87.2303 85.2473 89.7359 88.3382 89.7359Z" fill="#FFBE56"/>
<path d="M91.8111 84.5137C91.8111 86.4315 90.2565 87.9861 88.3387 87.9861C86.4208 87.9861 84.8662 86.4315 84.8662 84.5137H91.8111Z" fill="#2A94F5"/>
<path d="M87.2193 83.4093C87.1177 83.4093 87.0278 83.3375 87.0079 83.2341C86.8579 82.4411 86.4134 81.8874 85.9258 81.8874C85.4376 81.8874 84.9937 82.4411 84.846 83.2336C84.8238 83.3504 84.7117 83.4257 84.5949 83.4058C84.4781 83.3842 84.401 83.2715 84.4226 83.1547C84.6118 82.1391 85.2156 81.457 85.9258 81.457C86.6342 81.457 87.2392 82.1391 87.4308 83.1541C87.4529 83.2709 87.3759 83.3836 87.2591 83.4053C87.2462 83.4082 87.2328 83.4093 87.2193 83.4093Z" fill="#30201D"/>
<path d="M92.0441 83.4093C91.9424 83.4093 91.8525 83.3375 91.8327 83.2341C91.6826 82.4411 91.2376 81.8874 90.7505 81.8874C90.2623 81.8874 89.8184 82.4411 89.6707 83.2336C89.6491 83.3504 89.5369 83.4257 89.4196 83.4058C89.3028 83.3842 89.2257 83.2715 89.2473 83.1547C89.4365 82.1391 90.0409 81.457 90.7505 81.457C91.4589 81.457 92.0639 82.1391 92.256 83.1541C92.2782 83.2709 92.2012 83.3836 92.0844 83.4053C92.0703 83.4082 92.0569 83.4093 92.0441 83.4093Z" fill="#30201D"/>
<path d="M87.4339 149.365C90.5247 149.365 93.0303 146.859 93.0303 143.768C93.0303 140.678 90.5247 138.172 87.4339 138.172C84.343 138.172 81.8374 140.678 81.8374 143.768C81.8374 146.859 84.343 149.365 87.4339 149.365Z" fill="#FFBE56"/>
<path d="M90.9064 144.143C90.9064 146.06 89.3517 147.615 87.4339 147.615C85.516 147.615 83.9614 146.06 83.9614 144.143H90.9064Z" fill="#2A94F5"/>
<path d="M86.3146 143.034C86.213 143.034 86.123 142.963 86.1032 142.859C85.9531 142.066 85.5086 141.512 85.021 141.512C84.5328 141.512 84.0889 142.066 83.9412 142.859C83.919 142.975 83.8069 143.051 83.6901 143.031C83.5733 143.009 83.4962 142.897 83.5178 142.78C83.707 141.764 84.3109 141.082 85.021 141.082C85.7294 141.082 86.3344 141.764 86.526 142.779C86.5482 142.896 86.4711 143.009 86.3543 143.03C86.3414 143.033 86.328 143.034 86.3146 143.034Z" fill="#30201D"/>
<path d="M91.1393 143.034C91.0377 143.034 90.9477 142.963 90.9279 142.859C90.7778 142.066 90.3328 141.512 89.8457 141.512C89.3575 141.512 88.9136 142.066 88.7659 142.859C88.7443 142.975 88.6322 143.051 88.5148 143.031C88.398 143.009 88.3209 142.897 88.3425 142.78C88.5317 141.764 89.1362 141.082 89.8457 141.082C90.5541 141.082 91.1591 141.764 91.3513 142.779C91.3735 142.896 91.2964 143.009 91.1796 143.03C91.1656 143.033 91.1521 143.034 91.1393 143.034Z" fill="#30201D"/>
<path d="M204.013 84.0591C207.095 84.0591 209.594 81.5602 209.594 78.4778C209.594 75.3953 207.095 72.8965 204.013 72.8965C200.93 72.8965 198.432 75.3953 198.432 78.4778C198.432 81.5602 200.93 84.0591 204.013 84.0591Z" fill="#FFBE56"/>
<path d="M207.476 78.8496C207.476 80.7622 205.926 82.3127 204.013 82.3127C202.1 82.3127 200.55 80.7622 200.55 78.8496H207.476Z" fill="#2A94F5"/>
<path d="M202.897 77.7445C202.796 77.7445 202.706 77.6727 202.686 77.5699C202.537 76.7792 202.093 76.2267 201.607 76.2267C201.12 76.2267 200.677 76.7786 200.53 77.5693C200.508 77.6855 200.396 77.7609 200.279 77.741C200.163 77.7194 200.086 77.6073 200.108 77.4905C200.296 76.4778 200.899 75.7969 201.607 75.7969C202.313 75.7969 202.917 76.4772 203.108 77.4893C203.13 77.6061 203.053 77.7182 202.937 77.7398C202.924 77.7428 202.91 77.7445 202.897 77.7445Z" fill="#30201D"/>
<path d="M207.708 77.7478C207.607 77.7478 207.517 77.676 207.497 77.5732C207.348 76.7825 206.904 76.23 206.418 76.23C205.931 76.23 205.488 76.7819 205.341 77.5726C205.319 77.6889 205.208 77.7642 205.09 77.7443C204.974 77.7227 204.897 77.6106 204.919 77.4938C205.107 76.4811 205.71 75.8008 206.418 75.8008C207.124 75.8008 207.728 76.4811 207.919 77.4932C207.941 77.61 207.865 77.7221 207.748 77.7437C207.735 77.7461 207.721 77.7478 207.708 77.7478Z" fill="#30201D"/>
<path d="M162.99 66.957H120.174C117.819 66.957 115.892 68.8836 115.892 71.2389V80.0024C115.892 82.3571 117.819 84.2843 120.174 84.2843H150.449L157.415 90.9764L156.48 84.2843H162.99C165.345 84.2843 167.272 82.3577 167.272 80.0024V71.2389C167.271 68.8836 165.345 66.957 162.99 66.957Z" fill="#2A94F5"/>
<path d="M133.481 71.9769C131.523 67.9771 127.524 73.4235 127.524 73.4235C127.524 73.4235 123.524 67.9771 121.567 71.9769C119.61 75.9767 127.524 80.7422 127.524 80.7422C127.524 80.7422 135.438 75.9767 133.481 71.9769Z" fill="white"/>
<path d="M204.403 193.807H247.22C249.575 193.807 251.501 195.733 251.501 198.088V206.851C251.501 209.206 249.575 211.133 247.22 211.133H216.945L209.978 217.825L210.913 211.133H204.403C202.049 211.133 200.122 209.206 200.122 206.851V198.088C200.122 195.733 202.049 193.807 204.403 193.807Z" fill="#2A94F5"/>
<path d="M217.711 198.827C215.753 194.827 211.754 200.273 211.754 200.273C211.754 200.273 207.754 194.827 205.797 198.827C203.84 202.826 211.754 207.592 211.754 207.592C211.754 207.592 219.668 202.826 217.711 198.827Z" fill="white"/>
<path d="M221.92 138.278C221.92 138.278 221.062 134.135 222.433 133.022C223.803 131.909 227.957 128.059 228.734 128.5C229.512 128.94 230.785 131.552 230.369 133.082C229.953 134.614 224.719 140.152 224.719 140.152L221.92 138.278Z" fill="#D9935C"/>
<path d="M194.647 194.551C194.209 203.06 192.725 215.202 191.623 227.475H173.013C172.613 224.185 172.032 220.977 171.389 217.847C170.347 212.774 169.147 207.895 168.307 203.175C166.613 193.672 166.93 186.246 168.397 180.483C169.655 175.535 171.761 171.813 174.169 169.054C179.446 163.009 194.138 174.823 194.138 174.823C194.138 174.823 195.079 186.091 194.647 194.551Z" fill="#0E538C"/>
<path d="M186.194 197.254C186.194 197.254 186.19 197.315 186.181 197.432C186.048 199.178 184.877 213.473 181.199 227.473H173.014C172.614 224.183 172.032 220.975 171.39 217.845C172.784 209.638 174.11 203.119 174.11 203.119L186.194 197.254Z" fill="#0D4871"/>
<path d="M187.284 193.795C187.083 194.601 186.692 195.877 186.181 197.433C184.082 203.812 179.965 214.897 178.792 217.667C177.42 220.909 176.126 224.189 174.906 227.475H154.54C154.96 219.574 155.063 203.17 155.444 198.802C156.975 181.24 160.298 179.531 160.298 179.531L168.398 180.482L187.273 182.697C187.273 182.697 190.371 181.357 187.284 193.795Z" fill="#0E538C"/>
<path d="M190.693 98.7596C191.604 91.3183 189.28 79.4117 174.428 81.3144C159.577 83.217 154.896 97.813 157.892 104.302C160.887 110.792 153.58 112.357 151.286 119.336C149.316 125.332 148.628 132.776 145.44 136.116C135.158 146.887 155.311 163.45 167.459 159.958C189.587 153.597 192.437 152.647 191.652 135.26C191.249 126.352 184.318 122.9 188.719 120.323C199.349 114.097 188.631 115.597 190.693 98.7596Z" fill="#163560"/>
<path d="M186.199 122.647L181.793 129.249L172.956 128.817L168.867 118.241C168.867 118.241 169.629 118.102 170.251 111.817C170.404 110.166 170.556 108.097 170.696 105.494C170.696 105.494 170.683 105.481 170.696 105.468C170.696 105.252 170.709 105.036 170.721 104.82L171.864 105.163L181.767 108.185C181.767 108.185 181.716 108.515 181.653 109.086C181.538 110.344 181.424 112.756 181.945 115.333C182.478 117.949 183.672 120.742 186.199 122.647Z" fill="#D9935C"/>
<path d="M186.228 117.864C185.66 117.864 176.015 115.901 159.728 120.068C159.728 120.068 168.648 160.937 165.618 168.641C162.587 176.344 161.436 183.181 161.436 183.181L194.31 183.588C194.31 183.588 193.851 157.149 195.366 147.791C196.88 138.433 186.228 117.864 186.228 117.864Z" fill="#D9935C"/>
<path d="M221.75 134.15C221.75 134.15 211.249 148.396 209.396 148.256C207.403 148.091 202.4 130.391 198.616 123.865C195.964 119.309 186.827 117.948 186.23 117.864C186.23 117.864 186.229 117.864 186.229 117.863C186.209 117.861 186.199 117.859 186.199 117.859L186.222 117.949C186.143 118.792 185.399 125.551 181.658 126.169C174.758 127.307 169.197 120.986 167.573 118.442C167.573 118.442 159.648 120.442 157.323 123.094C155.12 125.604 158.134 144.203 158.803 145.986C159.382 147.517 159.929 149.011 160.405 150.512C161.664 154.473 162.434 158.496 161.993 163.451C161.512 168.861 156.457 181.222 157.551 183.855C158.696 186.621 160.288 188.022 163.771 188.821C166.172 189.375 169.471 189.641 174.14 189.874C184.044 190.366 194.657 189.121 196.102 184.413C196.794 182.153 196.527 173.409 196.161 169.373C195.679 164.067 196.144 157.296 196.608 151.073C196.63 151.108 196.652 151.142 196.675 151.176C196.675 151.176 196.675 151.189 196.687 151.189C197.754 152.827 198.985 154.579 200.243 156.216C202.147 158.667 204.128 160.813 205.817 161.803C206.236 162.044 206.629 162.209 206.997 162.298C208.115 162.565 210.311 162.565 212.444 161.346C212.787 161.155 213.143 160.914 213.486 160.647C219.707 155.708 225.243 140.281 225.243 140.281C225.838 136.69 221.75 134.15 221.75 134.15Z" fill="#FFBE55"/>
<path d="M157.549 183.856C158.695 186.621 160.287 188.022 163.77 188.822C168.426 187.927 171.496 179.36 173.077 175.143C174.899 170.284 167.401 147.499 164.782 147.726C162.834 147.895 160.975 150.598 160.911 152.225C162.171 156.186 162.433 158.497 161.991 163.451C161.511 168.861 156.456 181.223 157.549 183.856Z" fill="#E7A329"/>
<path d="M212.443 161.348C210.31 162.567 208.113 162.567 206.996 162.3C206.628 162.212 206.234 162.046 205.815 161.805C204.126 160.815 202.146 158.669 200.241 156.219C198.985 154.58 197.753 152.828 196.686 151.191C196.927 150.302 197.803 149.883 200.634 152.79C205.396 157.679 206.272 160.955 209.294 161.209C210.335 161.297 211.389 161.348 212.443 161.348Z" fill="#E7A329"/>
<path d="M181.945 115.333C178.809 116.196 171.152 106.102 170.695 105.493C170.682 105.48 170.669 105.467 170.669 105.467H170.695L171.863 105.162L181.767 108.184C181.767 108.184 181.716 108.514 181.652 109.085C181.539 110.343 181.424 112.755 181.945 115.333Z" fill="#CC7C46"/>
<path d="M184.654 108.942C184.654 108.942 171.425 111.598 169.898 103.335C168.37 95.0711 165.634 89.849 174.016 87.8032C182.397 85.7575 184.626 88.6068 185.807 91.2406C186.987 93.8751 188.055 108.038 184.654 108.942Z" fill="#D9935C"/>
<path d="M185.972 86.3215C179.447 79.8905 173.738 83.6602 175.157 85.3807C172.803 85.3404 169.574 85.8315 167.336 88.3491C163.425 92.7496 170.568 107.671 170.568 107.671C170.568 107.671 169.72 98.0529 174.071 93.2968C176.144 91.0303 177.176 89.2082 177.688 87.9211C178.505 88.5728 179.395 89.1206 180.332 89.4494C184.541 90.9263 186.854 97.6984 186.854 97.6984C188.359 94.5384 188.784 89.092 185.972 86.3215Z" fill="#163560"/>
<path d="M170.445 170.697L173.393 172.118C174.698 172.501 175.208 172.856 175.991 172.768C177.882 172.557 181.7 172.675 184.338 176.363C184.338 176.363 185.673 178.551 183.778 178.777C181.883 179.002 182.557 178.663 179.897 179.036C177.237 179.408 174.556 176.897 173.723 175.989L170.635 174.858L170.445 170.697Z" fill="#D9935C"/>
<path d="M167.571 118.441C167.571 118.441 159.752 118.751 156.125 122.125C152.025 125.94 144.674 149.08 144.674 163.611C144.674 163.611 144.526 171.616 172.374 177.008C172.374 177.008 173.708 175.902 174.209 174.835C175.096 172.944 175.095 171.645 175.095 171.645C175.095 171.645 158.765 162.383 158.178 159.468C157.395 155.577 168.573 140.425 167.571 118.441Z" fill="#FFBE55"/>
<path d="M255.309 118.616C255.309 118.616 232.25 114.014 204.674 114.386L203.078 106.871L201.328 98.6376C201.328 98.6376 230.137 91.6495 249.012 78.3027L255.309 118.616Z" fill="#4F80FF"/>
<path d="M255.308 118.616C257.349 118.382 258.761 116.51 258.401 114.516L252.189 80.0951C251.889 78.4272 250.678 77.8987 249.012 78.3034L255.308 118.616Z" fill="#FFBE55"/>
<path d="M228.538 115.195C244.365 116.432 255.31 118.616 255.31 118.616C255.31 118.616 229.076 106.017 203.08 106.872L204.675 114.387C209.563 114.321 214.308 114.411 218.808 114.604C218.8 114.743 218.796 114.883 218.8 115.024L219.481 138.722C219.557 141.397 221.808 143.522 224.483 143.445C227.158 143.368 229.283 141.117 229.207 138.443L228.538 115.195Z" fill="#0C538E"/>
<path d="M212.27 114.408L204.81 114.466C204.92 114.489 197.856 114.668 196.658 108.166C196.524 107.713 196.463 107.276 196.454 106.772C196.014 98.8452 200.401 98.1433 200.401 98.1433L210.345 96.0566L211.5 107.146C211.5 107.146 211.5 107.146 211.493 107.182L212.27 114.408Z" fill="#FFBE55"/>
<path d="M212.27 114.409L204.81 114.467C204.92 114.489 197.855 114.669 196.658 108.166C201.268 105.851 211.499 107.146 211.499 107.146C211.499 107.146 211.499 107.146 211.492 107.183L212.27 114.409Z" fill="#E7A329"/>
</svg>
