<svg width="344" height="272" viewBox="0 0 344 272" fill="none" xmlns="http://www.w3.org/2000/svg">
<path d="M159.877 248.443C235.319 248.443 296.478 242.575 296.478 235.337C296.478 228.098 235.319 222.23 159.877 222.23C84.4342 222.23 23.2759 228.098 23.2759 235.337C23.2759 242.575 84.4342 248.443 159.877 248.443Z" fill="#D3D3D3"/>
<path opacity="0.5" d="M132.422 74.2289C131.478 75.1205 129.951 75.076 129.052 74.1398L112.426 56.8429C111.527 55.9067 111.572 54.391 112.516 53.4994L126.446 40.3039C127.389 39.4123 128.917 39.4568 129.816 40.393L146.442 57.6899C147.34 58.6261 147.295 60.1418 146.352 61.0334L132.422 74.2289Z" fill="#FFBE55"/>
<path opacity="0.5" d="M275.852 56.8397C277.2 58.5783 276.841 61.0302 275.133 62.3676L243.185 86.708C241.432 88.0454 238.961 87.6888 237.613 85.9948L218.022 60.629C216.673 58.8904 217.033 56.4385 218.74 55.1011L250.689 30.7606C252.441 29.4232 254.913 29.7799 256.261 31.4739L275.852 56.8397Z" fill="#FFBE55"/>
<path d="M192.258 48.8869C199.518 47.2486 204.064 40.082 202.413 32.8797C200.762 25.6774 193.538 21.1669 186.278 22.8052C179.019 24.4434 174.472 31.6101 176.124 38.8124C177.775 46.0146 184.999 50.5252 192.258 48.8869Z" fill="#FFBE55"/>
<path d="M87.8174 140.571C93.2009 135.469 93.3958 127.003 88.2528 121.662C83.1098 116.321 74.5764 116.128 69.193 121.23C63.8095 126.332 63.6145 134.798 68.7575 140.139C73.9005 145.48 82.4339 145.674 87.8174 140.571Z" fill="#FFBE55"/>
<path d="M277.246 126.518C270.82 127.99 264.395 123.977 262.912 117.558C261.429 111.183 265.473 104.808 271.944 103.337C278.369 101.866 284.795 105.878 286.278 112.298C287.716 118.672 283.672 125.047 277.246 126.518ZM272.034 103.783C265.833 105.165 261.923 111.317 263.361 117.469C264.754 123.621 270.955 127.499 277.156 126.073C283.357 124.691 287.266 118.539 285.828 112.387C284.39 106.235 278.234 102.356 272.034 103.783Z" fill="#FFBE55"/>
<path d="M49.2483 86.0874C42.0138 78.5981 42.2834 66.6507 49.8774 59.4734C57.4713 52.2961 69.4688 52.5636 76.7033 60.0975C83.9377 67.6315 83.6681 79.5342 76.0742 86.7115C68.4802 93.8889 56.4378 93.5768 49.2483 86.0874ZM76.3438 60.365C69.2891 53.0539 57.5162 52.7865 50.147 59.7855C42.7777 66.7845 42.5081 78.4643 49.5628 85.7754C56.6175 93.0864 68.3904 93.3539 75.7596 86.3549C83.1289 79.3559 83.3985 67.6761 76.3438 60.365Z" fill="#FFBE55"/>
<path d="M223.504 210.328C223.504 210.328 226.335 218.531 226.919 219.913C227.414 221.027 228.447 221.785 229.391 222.543C229.705 222.766 230.02 223.301 230.29 223.791C230.514 224.148 230.469 224.594 230.334 224.995C227.414 231.771 219.46 234.178 219.326 233.643C219.056 232.707 220.314 230.879 221.977 229.988C223.684 229.141 224.718 227.358 224.897 225.485C225.032 223.969 224.763 222.498 224.134 221.116L221.258 214.964L223.504 210.328Z" fill="#FA968C"/>
<path d="M207.957 214.119L206.879 222.857C206.564 225.531 207.193 228.251 208.721 230.48C209.575 231.728 209.081 233.422 207.733 234.091C203.284 236.186 194.657 240.153 194.252 239.841C192.05 238.326 197.128 234.982 200.813 231.639C203.284 229.365 203.374 220.003 202.925 212.826L207.283 213.45C207.553 213.584 207.822 213.807 207.957 214.119Z" fill="#FA968C"/>
<path d="M201.936 234.001C200.093 234.804 198.026 235.205 196.139 235.651C195.914 235.695 195.735 235.784 195.555 235.963C193.847 237.568 193.084 239.083 194.252 239.886C194.656 240.153 201.666 239.529 206.474 234.714C206.654 234.492 207.238 236.943 207.238 236.943L209.619 236.408C209.619 236.408 209.889 232.218 209.395 231.46L208.451 230.078C206.429 231.638 204.272 232.976 201.936 234.001Z" fill="#0E538C"/>
<path d="M212.63 121.838C217.707 122.952 221.886 129.461 220.763 136.282C220.134 140.205 216.135 154.203 211.911 165.125C210.293 169.315 210.742 174.263 213.438 178.008C213.888 178.632 214.247 179.256 214.562 179.88C216.09 183.135 221.751 201.992 224.987 214.563C224.627 216.168 223.684 218.13 222.515 218.754C216.404 207.832 206.563 187.994 204.946 184.561C204.047 182.644 203.059 180.46 202.385 178.365C198.385 172.302 200.228 140.071 201.261 133.741C202.34 126.964 207.552 120.768 212.63 121.838Z" fill="#0B4870"/>
<path d="M215.614 90.7011C219.948 90.4232 223.169 85.7166 222.809 80.1886C222.449 74.6605 218.644 70.4045 214.31 70.6824C209.976 70.9603 206.755 75.6669 207.115 81.1949C207.475 86.7229 211.28 90.979 215.614 90.7011Z" fill="#0E538C"/>
<path d="M209.08 67.2309C209.08 67.2309 203.958 68.3008 203.149 71.9564C203.149 71.9564 201.531 69.5936 203.014 64.0658C204.092 60.2319 209.08 67.2309 209.08 67.2309Z" fill="#0E538C"/>
<path d="M204.183 86.9347C204.003 90.8577 203.689 94.7808 203.149 98.7038C202.61 102.582 201.936 106.505 200.993 110.294C200.049 114.128 198.926 117.918 197.398 121.573C196.634 123.401 195.78 125.184 194.747 126.923C193.713 128.617 192.5 130.266 191.062 131.693C190.837 131.916 190.478 131.916 190.253 131.693C190.029 131.47 190.029 131.158 190.208 130.89C192.635 127.993 194.207 124.471 195.466 120.86C196.679 117.249 197.533 113.504 198.207 109.715C198.836 105.926 199.33 102.136 199.6 98.3025C199.914 94.4687 200.049 90.6349 200.094 86.801C200.094 85.6865 201.037 84.7949 202.161 84.7949C203.284 84.7949 204.183 85.7311 204.183 86.8456C204.183 86.8902 204.183 86.9347 204.183 86.9347Z" fill="#FAB9AF"/>
<path d="M200.004 109.136C198.611 103.742 201.576 96.0742 202.16 92.4633C202.52 90.1452 201.307 84.8848 201.307 84.8848L216.629 85.9993C219.191 86.1776 221.123 88.3174 220.988 90.8584C220.808 95.2718 218.022 105.124 216.45 110.295L200.004 109.136Z" fill="#FAB9AF"/>
<path d="M203.148 214.699C202.878 214.565 202.744 214.298 202.699 214.03C201.89 202.841 201.171 188.576 201.126 185.812C201.126 185.5 201.126 185.187 201.126 184.875C197.396 171.903 194.206 143.595 193.442 138.646C192.454 132.138 195.689 124.381 200.767 123.623C205.844 122.865 211.91 127.591 214.157 133.386C215.64 137.22 213.573 158.663 210.517 174.31C209.888 177.609 210.068 180.997 210.877 184.251C211.461 186.525 211.775 188.843 211.775 190.671C211.82 193.39 209.888 204.58 207.956 214.209C207.911 214.476 207.686 214.744 207.417 214.833C206.114 215.368 204.586 215.412 203.148 214.699Z" fill="#0B4870"/>
<path d="M221.122 129.331L217.752 117.161C217.123 114.887 217.078 112.524 217.573 110.206C218.741 104.857 220.853 94.8264 221.032 90.5021C221.122 88.184 219.37 86.2225 217.033 86.0442L214.742 85.8659C213.708 87.7828 211.776 89.2093 208.945 88.9864C206.114 88.7635 204.362 87.1141 203.643 85.0634L201.531 84.9297C203.463 90.0118 202.16 96.4758 197.891 99.953C198.43 102.628 198.88 105.258 199.194 107.442C199.599 110.34 199.104 113.327 197.756 115.957C195.465 120.46 193.353 127.86 193.577 130.847C192.948 136.776 223.818 131.694 221.122 129.331Z" fill="#FFBE55"/>
<path d="M206.654 86.3531L213.664 86.1302L212.046 78.418L207.508 78.6409L206.654 86.3531Z" fill="#FAB9AF"/>
<path d="M207.508 78.6428L212.046 78.4199L212.541 80.8272C211.462 81.8971 209.979 84.2153 208.362 84.0815C207.823 84.037 207.373 83.8586 206.969 83.5466L207.508 78.6428Z" fill="#FA968C"/>
<path d="M204.047 80.9596C205.485 81.4945 207.283 81.3608 210.114 80.2909C211.731 79.6667 213.349 78.151 213.798 76.9028L216.404 69.993L205.665 66.0254C205.665 66.0254 203.463 69.4134 202.879 73.3364C202.475 76.2787 202.924 80.5138 204.047 80.9596Z" fill="#FAB9AF"/>
<path d="M217.438 71.2853C218.247 69.1009 217.124 66.6936 214.967 65.8912L211.327 64.5538C210.294 64.1526 209.395 63.5285 208.676 62.726C207.687 61.5224 205.98 61.1657 204.632 62.0128C203.194 62.9489 202.16 64.4646 203.958 66.9611C204.856 68.1647 206.923 67.9418 207.957 68.7889C208.047 68.8334 208.092 68.8334 208.182 68.8334L211.372 70.0371C212.495 70.4383 212.99 71.6865 212.63 72.801C212.405 73.5143 212.765 74.2721 213.484 74.5396L213.619 74.5842L214.742 73.1577L215.641 76.1891L217.438 71.2853Z" fill="#0E538C"/>
<path d="M178.57 119.476C178.57 119.476 182.524 118.718 183.153 119.877C183.782 120.991 184.007 121.883 182.389 122.864C180.771 123.845 178.075 124.424 176.413 124.424C174.75 124.424 171.919 123.31 171.695 122.998C170.886 121.838 175.02 120.635 176.503 120.724C177.986 120.769 178.57 122.195 178.435 121.482C178.255 120.769 175.424 120.858 174.93 120.1C174.436 119.253 178.57 119.476 178.57 119.476Z" fill="#FAB9AF"/>
<path d="M206.519 66.1581C206.294 67.8521 205.44 68.5208 209.709 72.9342C214.023 77.3476 216.045 76.9018 216.674 80.1561C216.674 80.1561 217.618 75.4753 215.281 72.8896C212.944 70.304 208.316 67.4509 208.046 63.3496C208.091 63.3942 206.698 64.999 206.519 66.1581Z" fill="#0E538C"/>
<path d="M220.764 88.2691V88.5366V88.7595C220.764 88.9378 220.719 89.0715 220.719 89.2498C220.674 89.5619 220.629 89.874 220.629 90.186C220.539 90.8101 220.449 91.3897 220.315 91.9692C220.045 93.1728 219.73 94.3319 219.371 95.4464C218.607 97.72 217.574 99.9044 216.36 101.955C215.102 104.006 213.664 105.923 212.047 107.661C210.429 109.4 208.632 111.005 206.744 112.387C202.97 115.195 198.701 117.38 194.342 118.94C193.803 119.163 193.264 119.341 192.68 119.519L191.017 120.054C189.894 120.366 188.771 120.678 187.647 120.946L184.232 121.659L180.817 122.194C180.547 122.239 180.278 122.06 180.233 121.793C180.188 121.525 180.368 121.258 180.637 121.213C185.086 120.188 189.445 118.895 193.578 117.112L195.106 116.443C195.645 116.221 196.095 115.953 196.634 115.686C197.128 115.418 197.623 115.195 198.117 114.928L199.555 114.081C201.442 112.922 203.329 111.673 204.992 110.247C206.699 108.82 208.272 107.305 209.71 105.655C211.103 104.006 212.361 102.178 213.44 100.306C214.518 98.4332 215.372 96.4272 216.001 94.3765C216.315 93.3512 216.63 92.3258 216.81 91.2559C216.9 90.721 216.989 90.2306 217.079 89.6956C217.124 89.4282 217.169 89.1607 217.169 88.9378C217.169 88.804 217.214 88.6703 217.214 88.5811V88.2691V88.1353C217.259 87.1546 218.113 86.3967 219.101 86.4413C220.045 86.4859 220.809 87.3329 220.764 88.2691Z" fill="#FAB9AF"/>
<path d="M207.417 66.8263C207.417 66.8263 205.215 72.0867 199.554 72.8891C199.554 72.8891 203.148 69.6348 204.002 66.9601C204.856 64.2853 208.451 65.1323 207.417 66.8263Z" fill="#0E538C"/>
<path d="M189.579 130.219C189.579 130.219 191.691 127.41 192.859 128.213C194.027 129.015 194.746 129.773 194.297 131.556C193.848 133.384 192.455 135.345 191.376 136.237C190.298 137.128 187.647 137.485 187.332 137.262C186.029 136.504 188.231 135.212 189.264 134.498C190.298 133.785 191.331 132.849 190.747 132.225C190.163 131.601 188.366 133.161 187.557 132.671C186.703 132.18 189.579 130.219 189.579 130.219Z" fill="#FAB9AF"/>
<path d="M224.897 228.383C223.414 229.675 221.662 230.701 220.044 231.637C219.864 231.726 219.685 231.904 219.595 232.083C218.516 234.089 218.202 235.783 219.505 236.184C219.954 236.318 226.245 233.688 229.256 227.714C229.39 227.446 230.604 229.631 230.604 229.631L232.671 228.427C232.671 228.427 231.727 224.326 231.008 223.791L229.75 222.766C228.357 224.772 226.739 226.689 224.897 228.383Z" fill="#0E538C"/>
<path d="M215.91 76.2335C215.011 77.3925 213.753 77.8829 213.079 77.348C212.405 76.813 212.81 74.7623 213.708 73.6033C214.607 72.4442 215.64 72.6671 216.314 73.2021C216.944 73.737 216.764 75.0744 215.91 76.2335Z" fill="#FAB9AF"/>
<path d="M107.17 218.529L106.271 225.75C106.226 226.063 106.136 226.375 106.001 226.687L104.923 229.139C104.204 230.699 105.237 232.482 106.945 232.66C106.945 232.66 110.09 233.195 113.371 233.686C116.696 234.176 120.515 232.616 120.38 231.813C120.066 229.986 118.583 231.724 115.393 230.298C114.314 229.807 113.191 229.317 112.202 228.782C109.371 227.266 110.675 222.006 111.753 218.974C112.112 217.904 111.349 216.745 110.18 216.701L109.416 216.656C108.248 216.656 107.304 217.459 107.17 218.529Z" fill="#F7F7F7"/>
<path d="M104.248 229.854L118.942 230.923C118.942 230.923 122.042 233.197 121.278 234.802C120.56 236.407 104.428 233.197 104.428 233.197C104.428 233.197 102.181 231.325 104.248 229.854Z" fill="#0E538C"/>
<path d="M105.776 136.327L129.097 135.971C129.097 135.971 130.13 153.847 121.907 185.543C118.043 200.388 112.471 228.741 112.471 228.741C110.988 229.276 105.506 229.365 104.068 228.875C104.068 228.875 106.36 216.169 107.124 202.483C107.843 189.377 108.786 175.379 108.337 170.743C107.349 161.203 105.776 136.327 105.776 136.327Z" fill="#0E538C"/>
<path d="M159.158 132.269C158.17 131.6 157.226 130.843 156.822 130.62C156.642 130.53 156.058 130.441 155.878 130.397C155.384 130.308 154.62 130.218 154.305 129.862L152.957 128.435C152.328 127.722 151.43 127.544 150.576 128.301C149.632 129.104 149.812 130.129 150.621 130.798L151.519 131.823C152.149 132.358 152.418 133.161 152.733 133.963C153.362 135.523 154.979 136.638 156.372 137.396C157.271 137.842 158.709 137.351 160.596 136.593C161.54 136.237 162.888 135.39 161.809 135.078C160.911 134.81 157.945 135.791 156.912 133.339C156.867 133.205 156.732 132.893 156.912 132.759C157.316 132.358 158.08 133.116 158.664 133.294C159.428 133.562 160.057 133.384 160.282 133.116C160.506 132.759 159.877 132.715 159.158 132.269Z" fill="#FAB9AF"/>
<path d="M132.872 83.5405C132.872 83.5405 124.244 106.9 131.928 115.46C136.556 120.631 148.194 129.145 150.89 131.107C151.25 131.374 151.744 131.33 152.149 131.018C152.418 130.84 152.688 130.617 152.957 130.394C153.227 130.171 153.542 129.859 153.811 129.547C154.261 129.012 154.306 128.343 153.901 127.897C150.98 124.732 139.432 112.25 138.219 108.817C136.826 104.894 141.993 80.3308 137.68 79.9742C133.905 79.6621 134.085 78.1464 132.872 83.5405Z" fill="#0E538C"/>
<path d="M132.332 218.35L131.658 224.413C131.523 225.661 131.209 226.865 130.759 228.024L130.04 229.852C129.411 231.323 130.445 232.972 132.018 233.151C136.197 233.597 143.296 234.399 145.138 234.577C145.453 234.622 145.768 234.444 145.813 234.131C146.172 232.393 141.139 230.61 137.41 228.693C134.579 227.222 135.343 221.961 136.017 218.93C136.286 217.771 135.433 216.701 134.219 216.656C133.276 216.656 132.467 217.37 132.332 218.35Z" fill="#F7F7F7"/>
<path d="M121.548 135.122L144.69 132.18C144.69 132.18 147.7 150.234 143.027 183.357C140.825 198.871 137.5 228.516 137.5 228.516C136.107 229.229 131.524 229.452 130.041 229.096C130.041 229.096 130.94 216.123 130.176 202.125C129.412 188.707 128.828 174.397 127.884 169.716C125.862 160.265 121.548 135.122 121.548 135.122Z" fill="#0E538C"/>
<path d="M145.363 134.945C143.341 135.881 138.893 137.307 131.029 137.174C120.514 136.995 109.685 137.04 105.776 136.282C104.742 136.059 105.506 133.295 105.731 132.225L112.831 79.1311L117.998 77.125L122.986 77.8383L130.22 114.795L134.669 79.5769L137.634 80.0227L146.487 132.85C146.621 133.697 146.172 134.544 145.363 134.945Z" fill="#0B4870"/>
<path d="M134.669 79.5316L130.22 114.749L123.031 77.793L134.669 79.5316Z" fill="#D3D3D3"/>
<path d="M132.153 55.5911C127.48 55.2791 125.547 58.4888 125.053 64.5516C124.873 66.8252 125.772 69.1433 126.491 70.659C127.03 71.7735 127.12 73.0663 126.716 74.2254L125.457 77.6134C124.559 80.7786 125.952 82.6064 128.198 83.4088C129.277 83.81 130.67 83.6317 131.658 83.0521C132.872 82.3835 133.051 80.7786 132.917 79.4412L132.737 78.4604C132.467 77.1231 133.321 75.7411 134.714 75.5182C138.354 74.9832 139.118 71.2831 140.466 65.5769C141.814 59.6033 136.826 55.9032 132.153 55.5911Z" fill="#FAB9AF"/>
<path d="M132.197 52.2052C128.962 51.9823 123.48 53.4534 123.884 58.1343L124.289 61.4332C124.424 62.7705 125.502 63.7959 126.805 64.0188C126.895 64.4646 127.299 64.8212 127.749 64.8658C128.333 64.9104 128.827 64.4646 128.872 63.885C128.962 62.4139 130.085 61.2103 131.568 60.9874C133.366 60.7199 135.298 60.7199 137.23 61.3886C140.825 62.5922 145.543 56.886 145.543 56.7969C145.543 56.7969 143.611 58.0897 140.016 56.5294C136.466 54.9691 138.174 52.3835 132.197 52.2052Z" fill="#0E538C"/>
<path d="M127.615 64.8679C127.525 66.2945 126.941 67.409 125.548 67.3198C124.155 67.2306 123.436 65.2246 123.526 63.798C123.615 62.3715 124.514 62.104 125.907 62.1931C127.3 62.2823 127.704 63.4414 127.615 64.8679Z" fill="#FAB9AF"/>
<path d="M126.356 70.9258C126.356 70.9258 129.771 75.7404 134.13 75.1608C134.13 75.1608 133.231 75.5621 133.006 76.2753C132.961 76.2753 128.872 75.9187 126.356 70.9258Z" fill="#E8948B"/>
<path d="M129.592 230.656L143.342 231.949C143.342 231.949 147.565 232.707 146.936 234.356C146.307 236.006 130.041 234 130.041 234C130.041 234 127.614 232.261 129.592 230.656Z" fill="#0E538C"/>
<path d="M178.435 120.321C177.042 120.053 175.694 119.697 175.11 119.652C174.885 119.652 174.256 119.786 174.032 119.786C173.492 119.875 172.639 120.098 172.144 119.875L169.988 118.983C168.954 118.538 167.921 118.716 167.471 119.741C166.977 120.856 167.741 121.792 168.909 122.149L170.437 122.773C171.381 123.04 172.099 123.709 172.863 124.378C174.391 125.67 176.638 126.116 178.525 126.294C179.693 126.428 180.862 125.403 182.389 123.932C183.108 123.218 184.052 121.881 182.749 122.015C181.671 122.104 179.244 124.155 176.818 122.193C176.683 122.104 176.413 121.837 176.458 121.658C176.683 121.123 177.851 121.524 178.525 121.524C179.469 121.524 180.008 121.123 180.098 120.722C180.098 120.276 179.424 120.499 178.435 120.321Z" fill="#FAB9AF"/>
<path d="M112.741 83.0073C112.741 83.0073 128.108 109.265 140.735 114.614C148.374 117.824 165.044 121.658 168.909 122.505C169.403 122.594 169.897 122.416 170.167 121.97C170.347 121.702 170.481 121.346 170.616 121.034C170.751 120.722 170.886 120.276 170.976 119.875C171.155 119.206 170.796 118.493 170.167 118.27C165.404 116.353 146.621 108.685 143.431 105.877C139.746 102.622 125.367 80.065 120.964 77.8806C116.515 75.6516 110.943 77.3902 112.741 83.0073Z" fill="#0E538C"/>
</svg>
