<svg width="82" height="70" viewBox="0 0 82 70" fill="none" xmlns="http://www.w3.org/2000/svg">
<path d="M1.74394 50.81C-0.155232 46.0092 0.993936 39.7517 5.3606 37.0009C7.19394 35.8475 9.52144 35.29 10.7631 33.5159C13.5181 29.1359 8.2056 21.2184 8.87477 15.5159C8.5831 5.83587 11.9998 1.52837 23.8256 0.680033C35.6514 -0.1683 43.2856 6.92503 45.9706 8.49253C51.8548 11.9275 59.5106 8.2692 66.0831 10.0559C71.9306 11.6442 76.0406 18.0184 75.0748 24.0025C74.2873 28.8767 70.6164 33.375 71.5873 38.2159C74.1623 47.0492 88.2281 51.5809 76.5873 62.0259C70.504 66.3259 62.5873 64.8417 55.5814 65.2434C50.5506 65.5492 45.6439 66.85 40.7189 67.92C30.7114 70.5867 19.6098 70.2234 12.4331 61.9442C8.4531 58.2567 3.88477 56.2217 1.74394 50.81Z" fill="#EDEDF4"/>
<path d="M48.1016 6.948H25.0149C23.4961 6.948 22.2649 8.17921 22.2649 9.698V60.2947C22.2649 61.8135 23.4961 63.0447 25.0149 63.0447H48.1016C49.6203 63.0447 50.8516 61.8135 50.8516 60.2947V9.698C50.8516 8.17921 49.6203 6.948 48.1016 6.948Z" fill="#252424"/>
<path d="M47.2647 7.60913H25.9314C24.4126 7.60913 23.1814 8.84035 23.1814 10.3591V59.3591C23.1814 60.8779 24.4126 62.1091 25.9314 62.1091H47.2647C48.7835 62.1091 50.0147 60.8779 50.0147 59.3591V10.3591C50.0147 8.84035 48.7835 7.60913 47.2647 7.60913Z" fill="#F2B45A"/>
<path d="M30.7972 18.3589H30.2139V20.6089H30.7972V18.3589Z" fill="white"/>
<path d="M42.1447 42.9995L42.1448 42.9154C42.1448 42.8426 42.0858 42.7837 42.0131 42.7837L31.2189 42.7818C31.1462 42.7818 31.0873 42.8407 31.0873 42.9134L31.0872 42.9976C31.0872 43.0703 31.1462 43.1293 31.2189 43.1293L42.013 43.1312C42.0858 43.1312 42.1447 43.0722 42.1447 42.9995Z" fill="white"/>
<path d="M39.0674 43.7454V43.5729C39.0674 43.5245 39.0282 43.4854 38.9799 43.4854H34.2599C34.2116 43.4854 34.1724 43.5245 34.1724 43.5729V43.7454C34.1724 43.7937 34.2116 43.8329 34.2599 43.8329H38.9799C39.0282 43.8329 39.0674 43.7937 39.0674 43.7454Z" fill="white"/>
<path d="M31.214 18.3589H31.0474V20.6089H31.214V18.3589Z" fill="white"/>
<path d="M31.4425 20.6089L41.4467 20.6097L41.4434 18.3597L31.4392 18.3589L31.4425 20.6089Z" fill="white"/>
<path d="M42.1305 20.6094H42.7139V18.3594H42.1305V20.6094Z" fill="white"/>
<path d="M41.7137 20.6094H41.8804V18.3594H41.7137V20.6094Z" fill="white"/>
<path d="M41.678 6.94482H31.428C31.1518 6.94482 30.928 7.16868 30.928 7.44482V9.19482C30.928 9.47097 31.1518 9.69482 31.428 9.69482H41.678C41.9541 9.69482 42.178 9.47097 42.178 9.19482V7.44482C42.178 7.16868 41.9541 6.94482 41.678 6.94482Z" fill="#252424"/>
<path d="M38.2163 8.70671C38.3637 8.56124 38.3653 8.32381 38.2198 8.1764C38.0744 8.02898 37.8369 8.02741 37.6895 8.17288C37.5421 8.31835 37.5405 8.55578 37.686 8.7032C37.8315 8.85061 38.0689 8.85219 38.2163 8.70671Z" fill="#C4C4C4"/>
<path d="M34.9397 8.71941C35.0871 8.57394 35.0887 8.33651 34.9432 8.18909C34.7978 8.04168 34.5603 8.0401 34.4129 8.18557C34.2655 8.33105 34.2639 8.56848 34.4094 8.71589C34.5549 8.86331 34.7923 8.86488 34.9397 8.71941Z" fill="#C4C4C4"/>
<path d="M37.1016 59.6963H28.8516V60.2796H37.1016V59.6963Z" fill="#C4C4C4"/>
<path d="M44.018 59.6963H38.3513V60.2796H44.018V59.6963Z" fill="#C4C4C4"/>
<path d="M44.0198 22.2078H29.2131C27.9995 22.2078 27.0156 23.1916 27.0156 24.4053V39.2119C27.0156 40.4256 27.9995 41.4094 29.2131 41.4094H44.0198C45.2334 41.4094 46.2173 40.4256 46.2173 39.2119V24.4053C46.2173 23.1916 45.2334 22.2078 44.0198 22.2078Z" fill="white"/>
<path d="M16.5088 24.3691V26.3216H18.4613V24.3691H16.5088ZM18.0046 25.8691H16.9655V24.825H18.0046V25.8691Z" fill="#FFC785"/>
<path d="M13.8115 28.1245V31.0478H16.7357V28.1245H13.8115ZM16.1549 30.467H14.3924V28.7045H16.1549V30.467Z" fill="#FFC785"/>
<path d="M52.3328 12.0962V15.0195H55.2494V12.0962H52.3328ZM54.6661 14.4337H52.9161V12.6837H54.6661V14.4337Z" fill="#FFC785"/>
<path d="M55.3438 9.24194V11.3178H57.4162V9.24194H55.3438ZM56.9221 10.8203H55.8388V9.73694H56.9221V10.8203Z" fill="#FFC785"/>
<path d="M66.4209 26.9663V28.7913H68.2492V26.9663H66.4209ZM67.8084 28.3546H66.8576V27.4038H67.8084V28.3546Z" fill="#FFC785"/>
<path d="M57.5824 12.5461H56.2632V13.8653H57.5824V12.5461Z" fill="#FFC785"/>
<path d="M68.5856 25.3616H67.5781V26.3691H68.5856V25.3616Z" fill="#FFC785"/>
<path d="M19.5025 27.561H18.1833V28.8802H19.5025V27.561Z" fill="#FFC785"/>
<path d="M61.8768 23.5146H60.4927C59.5897 23.5146 58.8577 24.2467 58.8577 25.1496V26.5338C58.8577 27.4368 59.5897 28.1688 60.4927 28.1688H61.8768C62.7798 28.1688 63.5118 27.4368 63.5118 26.5338V25.1496C63.5118 24.2467 62.7798 23.5146 61.8768 23.5146Z" fill="#1A4B98"/>
<path d="M62.4166 31.2479C61.5975 31.2562 60.7783 31.2854 59.96 31.3145C60.0608 30.0362 60.1408 28.7562 60.2383 27.4812C60.8816 27.489 61.5244 27.4954 62.1666 27.5004C62.2341 28.7529 62.32 30.0029 62.4166 31.2479Z" fill="#FFC785"/>
<path d="M59.5332 28.7333H59.9573C60.914 28.7333 62.6115 27.9575 62.6115 27.0008V26.1016C62.6115 25.6422 62.429 25.2015 62.104 24.8766C61.7791 24.5517 61.3385 24.3691 60.879 24.3691H60.4548C59.9953 24.3691 59.5547 24.5517 59.2298 24.8766C58.9049 25.2015 58.7223 25.6422 58.7223 26.1016V27.0025C58.7223 27.9575 58.5765 28.7333 59.5332 28.7333Z" fill="#FFC785"/>
<path d="M60.2601 23.9057L58.7722 24.2695C58.2863 24.3883 57.9887 24.8786 58.1075 25.3645L58.1077 25.3653C58.2265 25.8513 58.7168 26.1489 59.2027 26.0301L60.6906 25.6663C61.1765 25.5475 61.4742 25.0572 61.3553 24.5712L61.3551 24.5704C61.2363 24.0845 60.746 23.7868 60.2601 23.9057Z" fill="#1A4B98"/>
<path d="M62.5304 24.242L62.0826 24.1048C61.6043 23.9582 61.0977 24.2271 60.9511 24.7054L60.9509 24.7062C60.8043 25.1845 61.0732 25.6911 61.5515 25.8377L61.9993 25.975C62.4776 26.1216 62.9842 25.8527 63.1308 25.3743L63.131 25.3736C63.2776 24.8952 63.0087 24.3886 62.5304 24.242Z" fill="#1A4B98"/>
<path d="M62.0355 26.7407C62.0312 26.8487 62.0503 26.9564 62.0915 27.0563C62.1327 27.1562 62.195 27.246 62.2742 27.3196C62.3533 27.3932 62.4474 27.4489 62.5501 27.4827C62.6527 27.5166 62.7614 27.5278 62.8688 27.5157C63.097 27.5019 63.3115 27.4023 63.4693 27.2369C63.6271 27.0715 63.7165 26.8526 63.7197 26.6241C63.7241 26.516 63.7051 26.4083 63.6639 26.3082C63.6228 26.2082 63.5605 26.1183 63.4813 26.0446C63.4022 25.9709 63.308 25.9152 63.2053 25.8813C63.1026 25.8474 62.9938 25.8361 62.8863 25.8482C62.658 25.8621 62.4434 25.9618 62.2856 26.1274C62.1278 26.2929 62.0384 26.512 62.0355 26.7407Z" fill="#FFC785"/>
<path d="M52.8147 39.7478L53.223 40.2278L53.6314 40.7078L58.7147 36.4019L59.7147 34.1803C59.7865 34.0215 59.8244 33.8495 59.8258 33.6752C59.8273 33.501 59.7923 33.3284 59.7231 33.1684C59.6538 33.0085 59.552 32.8648 59.4239 32.7466C59.2959 32.6284 59.1446 32.5382 58.9797 32.4819C58.8135 32.4242 58.6369 32.4023 58.4616 32.4175C58.2863 32.4328 58.1162 32.4849 57.9625 32.5704C57.8087 32.6559 57.6747 32.7729 57.5692 32.9137C57.4638 33.0546 57.3893 33.2161 57.3505 33.3878L56.8122 35.7469L52.8147 39.7478Z" fill="#FFC785"/>
<path d="M51.7887 41.4461C51.8992 41.5756 52.055 41.6578 52.2242 41.6761C52.3934 41.6944 52.5631 41.6473 52.6987 41.5444L53.4721 40.9611C53.5439 40.9063 53.6039 40.8374 53.6483 40.7586C53.6927 40.6799 53.7206 40.5929 53.7303 40.503C53.7401 40.4132 53.7314 40.3223 53.7049 40.2358C53.6784 40.1494 53.6347 40.0693 53.5762 40.0003L53.5071 39.9169C53.4484 39.8482 53.3763 39.7921 53.2953 39.7521C53.2142 39.712 53.1259 39.6889 53.0356 39.6841C52.9454 39.6792 52.8551 39.6928 52.7702 39.724C52.6854 39.7551 52.6077 39.8032 52.5421 39.8653L51.8379 40.5319C51.7145 40.6492 51.6407 40.8093 51.6316 40.9793C51.6224 41.1492 51.6787 41.3163 51.7887 41.4461Z" fill="#FFC785"/>
<path d="M60.7273 31.5935L59.9631 34.6618L57.1981 33.9726C57.0498 33.936 56.9648 33.7635 57.0081 33.5876L57.6931 30.8376C57.7587 30.5754 57.9257 30.3498 58.1574 30.2106C58.3891 30.0714 58.6666 30.0299 58.929 30.0951L59.984 30.3576C60.2463 30.4232 60.4719 30.5901 60.6112 30.8218C60.7506 31.0535 60.7923 31.331 60.7273 31.5935Z" fill="#F1F29D"/>
<path d="M52.5664 39.7314L52.0035 39.9769C51.8917 40.0257 51.8405 40.1558 51.8893 40.2676L51.9003 40.2928C51.949 40.4046 52.0792 40.4557 52.191 40.407L52.754 40.1615C52.8657 40.1127 52.9169 39.9826 52.8681 39.8708L52.8571 39.8456C52.8084 39.7338 52.6782 39.6827 52.5664 39.7314Z" fill="#FFC785"/>
<path d="M58.6894 30.064H64.2186C64.3236 30.064 64.4277 30.0847 64.5247 30.1249C64.6218 30.1651 64.71 30.224 64.7843 30.2983C64.8585 30.3726 64.9175 30.4608 64.9577 30.5578C64.9979 30.6549 65.0186 30.7589 65.0186 30.864V38.789H57.8894V30.864C57.8894 30.7589 57.9101 30.6549 57.9503 30.5578C57.9905 30.4608 58.0494 30.3726 58.1237 30.2983C58.198 30.224 58.2862 30.1651 58.3833 30.1249C58.4803 30.0847 58.5843 30.064 58.6894 30.064Z" fill="#F1F29D"/>
<path d="M65.166 59.9777L64.396 60.0861C64.3642 60.0901 64.3334 60.1005 64.3057 60.1168C64.278 60.1331 64.254 60.1548 64.2349 60.1807C64.2159 60.2066 64.2023 60.2361 64.1951 60.2674C64.1878 60.2987 64.187 60.3311 64.1927 60.3627L64.4694 62.2202H65.731L65.4994 60.2427C65.4889 60.164 65.4484 60.0924 65.3862 60.0429C65.324 59.9935 65.2451 59.9701 65.166 59.9777Z" fill="#FFC785"/>
<path d="M61.5352 62.9749L65.8143 62.9824L65.731 62.2183H64.4693C64.4693 62.2183 61.481 62.4699 61.5352 62.9749Z" fill="#FFC785"/>
<path d="M65.6873 61.8158L65.8139 62.9825L61.4739 62.975C61.3623 61.9433 64.4048 61.8083 64.4048 61.8083L65.6873 61.8158Z" fill="#0B0759"/>
<path d="M63.2911 60.7149L64.7078 60.6457L66.1245 60.5765L64.8636 49.784L65.2428 38.964C65.2428 38.8674 65.1595 38.6515 65.0628 38.6482H60.8003L61.597 49.8699L63.2911 60.7149Z" fill="#18161F"/>
<path d="M57.9707 59.3938L58.1782 62.2955H59.4382L59.3332 59.5721C59.3316 59.5352 59.3174 59.4999 59.293 59.4722C59.2686 59.4444 59.2354 59.4259 59.199 59.4196L58.149 59.2338C58.1262 59.2295 58.1028 59.2305 58.0805 59.2368C58.0581 59.243 58.0376 59.2543 58.0203 59.2698C58.0031 59.2852 57.9896 59.3045 57.981 59.326C57.9724 59.3475 57.9689 59.3707 57.9707 59.3938Z" fill="#FFC785"/>
<path d="M55.1881 63.0607H59.4614L59.4381 62.2957H58.1781C58.1781 62.2957 55.1722 62.5565 55.1881 63.0607Z" fill="#FFC785"/>
<path d="M59.4249 61.8914L59.4608 63.058H55.1274C55.0958 62.0264 58.1449 61.8914 58.1449 61.8914H59.4249Z" fill="#0D096C"/>
<path d="M57.1418 60.6174L58.5676 60.6315L59.9943 60.6457L59.9868 49.8365L62.2501 38.6482H58.1018C57.9459 38.6482 57.8151 38.7132 57.7926 38.8682L56.6484 49.1524L57.1418 60.6174Z" fill="#262432"/>
<path d="M66.0611 41.7882L66.6903 41.7691L67.3203 41.7499L67.1319 35.0924L66.2153 33.2132C66.1383 33.0568 66.0292 32.9184 65.8951 32.8069C65.7611 32.6955 65.6051 32.6135 65.4372 32.5663C65.2694 32.5192 65.0935 32.5079 64.921 32.5332C64.7485 32.5585 64.5833 32.6198 64.4361 32.7132C64.2889 32.8062 64.1629 32.9292 64.0664 33.0742C63.9698 33.2191 63.9049 33.3827 63.8758 33.5544C63.8467 33.7261 63.8541 33.902 63.8975 34.0707C63.941 34.2393 64.0194 34.3969 64.1278 34.5332L65.4311 36.1691L66.0611 41.7882Z" fill="#FFC785"/>
<path d="M66.7501 43.6517C66.9202 43.6464 67.0818 43.5764 67.2019 43.4558C67.3219 43.3353 67.3914 43.1734 67.396 43.0033L67.4193 42.0325C67.4214 41.9421 67.405 41.8523 67.3713 41.7684C67.3376 41.6846 67.2871 41.6085 67.2231 41.5447C67.159 41.4809 67.0826 41.4309 66.9986 41.3976C66.9146 41.3642 66.8247 41.3483 66.7343 41.3508H66.6276C66.5374 41.3538 66.4487 41.3751 66.3669 41.4134C66.2851 41.4517 66.212 41.5062 66.1519 41.5736C66.0918 41.641 66.0461 41.7199 66.0174 41.8055C65.9887 41.8911 65.9778 41.9817 65.9851 42.0717L66.0685 43.04C66.0825 43.2097 66.1609 43.3677 66.2876 43.4814C66.4144 43.5952 66.5799 43.6561 66.7501 43.6517Z" fill="#FFC785"/>
<path d="M62.5266 32.1256L63.9307 34.8447L66.4624 33.5364C66.5982 33.4664 66.6407 33.2789 66.5582 33.1197L65.3041 30.6931C65.2366 30.5622 65.1439 30.4459 65.0314 30.3509C64.9189 30.2558 64.7888 30.1839 64.6485 30.1391C64.5082 30.0944 64.3604 30.0778 64.2137 30.0902C64.0669 30.1026 63.9241 30.1438 63.7932 30.2114L63.0082 30.6172C62.7444 30.7534 62.5455 30.9888 62.4552 31.2717C62.3649 31.5545 62.3905 31.8617 62.5266 32.1256Z" fill="#F1F29D"/>
<g style="mix-blend-mode:soft-light" opacity="0.7">
<path style="mix-blend-mode:soft-light" opacity="0.7" d="M18.4618 24.3696H16.5093V26.3221H18.4618V24.3696Z" fill="url(#paint0_linear_3340_56743)"/>
<path style="mix-blend-mode:soft-light" opacity="0.7" d="M16.7351 28.1201H13.8118V31.0435H16.7351V28.1201Z" fill="url(#paint1_linear_3340_56743)"/>
<path style="mix-blend-mode:soft-light" opacity="0.7" d="M55.2524 12.0938H52.3291V15.0171H55.2524V12.0938Z" fill="url(#paint2_linear_3340_56743)"/>
<path style="mix-blend-mode:soft-light" opacity="0.7" d="M57.4188 9.24048H55.3438V11.3155H57.4188V9.24048Z" fill="url(#paint3_linear_3340_56743)"/>
<path style="mix-blend-mode:soft-light" opacity="0.7" d="M54.2049 38.6445H52.3799V40.4695H54.2049V38.6445Z" fill="url(#paint4_linear_3340_56743)"/>
<path style="mix-blend-mode:soft-light" opacity="0.7" d="M57.5828 12.5449H56.2637V13.8641H57.5828V12.5449Z" fill="url(#paint5_linear_3340_56743)"/>
<path style="mix-blend-mode:soft-light" opacity="0.7" d="M52.9907 36.804H51.9832V37.8115H52.9907V36.804Z" fill="url(#paint6_linear_3340_56743)"/>
<path style="mix-blend-mode:soft-light" opacity="0.7" d="M19.5028 27.5586H18.1836V28.8778H19.5028V27.5586Z" fill="url(#paint7_linear_3340_56743)"/>
</g>
<g style="mix-blend-mode:soft-light" opacity="0.7">
<path style="mix-blend-mode:soft-light" opacity="0.7" d="M48.1345 7.1377H41.7562H41.7145H31.4645H31.4228H25.0479C24.3185 7.1377 23.619 7.42743 23.1033 7.94315C22.5876 8.45888 22.2979 9.15835 22.2979 9.8877L22.3045 60.4835C22.3045 61.2129 22.5942 61.9123 23.11 62.4281C23.6257 62.9438 24.3252 63.2335 25.0545 63.2335H48.1378C48.8672 63.2335 49.5667 62.9438 50.0824 62.4281C50.5981 61.9123 50.8878 61.2129 50.8878 60.4835L50.8812 9.88686C50.881 9.15824 50.5916 8.45948 50.0766 7.94404C49.5616 7.42859 48.8631 7.13858 48.1345 7.1377Z" fill="url(#paint8_linear_3340_56743)"/>
<path style="mix-blend-mode:soft-light" opacity="0.7" d="M18.4615 28.1157H16.509V30.0682H18.4615V28.1157ZM18.0049 29.6157H16.9657V28.5716H18.0049V29.6157Z" fill="url(#paint9_linear_3340_56743)"/>
<path style="mix-blend-mode:soft-light" opacity="0.7" d="M13.8118 34.7937H16.7359V31.8704H13.8118V34.7937ZM14.3951 32.4504H16.1576V34.2129H14.3926L14.3951 32.4504Z" fill="url(#paint10_linear_3340_56743)"/>
<path style="mix-blend-mode:soft-light" opacity="0.7" d="M55.2504 15.842H52.3337V18.7654H55.2504V15.842ZM54.6671 18.1795H52.9171V16.4295H54.6671V18.1795Z" fill="url(#paint11_linear_3340_56743)"/>
<path style="mix-blend-mode:soft-light" opacity="0.7" d="M57.4166 12.9885H55.3416V15.0644H57.4166V12.9885ZM56.9166 14.5669H55.8332V13.4835H56.9166V14.5669Z" fill="url(#paint12_linear_3340_56743)"/>
<path style="mix-blend-mode:soft-light" opacity="0.7" d="M66.4219 32.5359H68.2502V30.7109H66.4252L66.4219 32.5359ZM66.8585 31.1484H67.8094V32.0993H66.8585V31.1484Z" fill="url(#paint13_linear_3340_56743)"/>
<path style="mix-blend-mode:soft-light" opacity="0.7" d="M57.5826 16.293H56.2634V17.6121H57.5826V16.293Z" fill="url(#paint14_linear_3340_56743)"/>
<path style="mix-blend-mode:soft-light" opacity="0.7" d="M68.5856 29.1084H67.5781V30.1159H68.5856V29.1084Z" fill="url(#paint15_linear_3340_56743)"/>
<path style="mix-blend-mode:soft-light" opacity="0.7" d="M19.5025 31.3076H18.1833V32.6268H19.5025V31.3076Z" fill="url(#paint16_linear_3340_56743)"/>
<path style="mix-blend-mode:soft-light" opacity="0.7" d="M67.1325 38.8396L66.3908 37.3196L66.4625 37.2821C66.5983 37.2121 66.6408 37.0246 66.5583 36.8654L65.3041 34.4387C65.2189 34.2714 65.093 34.1282 64.9379 34.0223C64.7828 33.9165 64.6035 33.8513 64.4166 33.8329C64.3529 33.8169 64.2874 33.8085 64.2216 33.8079H62.3283C62.2822 33.1662 62.24 32.524 62.2016 31.8812C62.4207 31.8365 62.6283 31.7474 62.8116 31.6194C62.9949 31.4915 63.15 31.3273 63.2675 31.1371C63.4038 31.0602 63.5173 30.9486 63.5965 30.8137C63.6757 30.6787 63.7177 30.5252 63.7183 30.3687C63.7246 30.1666 63.6509 29.9702 63.5133 29.8221V28.8971C63.5133 28.4632 63.341 28.0471 63.0342 27.7404C62.7274 27.4336 62.3113 27.2612 61.8775 27.2612H60.4941C60.2408 27.2615 59.991 27.3208 59.7646 27.4345C59.5382 27.5482 59.3415 27.7132 59.19 27.9162L58.7733 28.0179C58.5786 28.0635 58.4045 28.1724 58.2782 28.3274C58.1519 28.4825 58.0805 28.675 58.0751 28.8749C58.0698 29.0748 58.1308 29.2709 58.2487 29.4324C58.3666 29.594 58.5346 29.712 58.7266 29.7679C58.7266 29.7971 58.7225 29.8254 58.7225 29.8512V30.7496C58.7225 31.7062 58.5766 32.4821 59.5333 32.4821H59.9575C60.0175 32.4821 60.08 32.4821 60.145 32.4729C60.1133 32.9173 60.0819 33.3637 60.0508 33.8121H58.6891H58.6616C58.438 33.8165 58.2221 33.8944 58.0471 34.0337C57.8721 34.173 57.7478 34.366 57.6933 34.5829L57.0083 37.3329C56.965 37.5087 57.05 37.6812 57.1983 37.7179H57.2133L56.8091 39.4887L52.8666 43.4387C52.8258 43.4466 52.7859 43.4586 52.7475 43.4746C52.7191 43.4618 52.6882 43.4551 52.6571 43.4551C52.6259 43.4551 52.5951 43.4618 52.5666 43.4746L52.0041 43.7196C51.9506 43.7431 51.9085 43.787 51.8871 43.8414C51.8657 43.8959 51.8668 43.9567 51.89 44.0104L51.9008 44.0354C51.9192 44.0768 51.9497 44.1117 51.9883 44.1354L51.8383 44.2779C51.7199 44.3963 51.6504 44.555 51.6436 44.7224C51.6368 44.8897 51.6933 45.0535 51.8018 45.1811C51.9103 45.3087 52.0629 45.3908 52.2291 45.4111C52.3954 45.4313 52.5632 45.3882 52.6991 45.2904L53.4725 44.7071C53.5744 44.6292 53.6516 44.5236 53.695 44.4029L57.8891 40.8487V42.4562C57.8625 42.4746 57.8401 42.4984 57.8234 42.5262C57.8067 42.5539 57.7962 42.5849 57.7925 42.6171L56.6483 52.8987L57.1416 64.3637L58.0583 64.3729L58.1483 65.6379H58.1433C58.1433 65.6379 55.0941 65.7762 55.1258 66.8046H59.4591L59.4358 66.0396V65.9379L59.4266 65.6346L59.3783 64.3846L59.9983 64.3904L59.9866 53.5829L61.1766 47.6921L61.5933 53.6204L63.2916 64.4612L64.24 64.4154L64.4066 65.5579H64.4016C64.4016 65.5579 61.3591 65.6904 61.4708 66.7246H61.5325L64.3566 66.7296H65.8108L65.7275 65.9654L65.7158 65.8637L65.6833 65.5604L65.5425 64.3512L66.1258 64.3229L64.8641 53.5304L65.2433 42.7104C65.2433 42.6137 65.16 42.3979 65.0633 42.3946H65.0183V39.3946L65.435 39.9154L66.0566 45.4612C65.9998 45.5716 65.9753 45.6958 65.9858 45.8196L66.0691 46.7879C66.0878 46.9543 66.1683 47.1076 66.2948 47.2174C66.4212 47.3271 66.5844 47.3852 66.7517 47.3802C66.9191 47.3751 67.0785 47.3073 67.1981 47.1902C67.3177 47.073 67.3889 46.9151 67.3975 46.7479L67.4208 45.7771C67.4242 45.6487 67.39 45.5221 67.3225 45.4129L67.1325 38.8396Z" fill="url(#paint17_linear_3340_56743)"/>
</g>
<defs>
<linearGradient id="paint0_linear_3340_56743" x1="16.5093" y1="25.3455" x2="18.4618" y2="25.3455" gradientUnits="userSpaceOnUse">
<stop stop-color="#D979D2"/>
<stop offset="1" stop-color="#50BF80"/>
</linearGradient>
<linearGradient id="paint1_linear_3340_56743" x1="13.8118" y1="29.5818" x2="16.7359" y2="29.5818" gradientUnits="userSpaceOnUse">
<stop stop-color="#D979D2"/>
<stop offset="1" stop-color="#50BF80"/>
</linearGradient>
<linearGradient id="paint2_linear_3340_56743" x1="52.3291" y1="13.5554" x2="55.2524" y2="13.5554" gradientUnits="userSpaceOnUse">
<stop stop-color="#D979D2"/>
<stop offset="1" stop-color="#50BF80"/>
</linearGradient>
<linearGradient id="paint3_linear_3340_56743" x1="55.3438" y1="10.278" x2="57.4188" y2="10.278" gradientUnits="userSpaceOnUse">
<stop stop-color="#D979D2"/>
<stop offset="1" stop-color="#50BF80"/>
</linearGradient>
<linearGradient id="paint4_linear_3340_56743" x1="52.3799" y1="39.557" x2="54.2049" y2="39.557" gradientUnits="userSpaceOnUse">
<stop stop-color="#D979D2"/>
<stop offset="1" stop-color="#50BF80"/>
</linearGradient>
<linearGradient id="paint5_linear_3340_56743" x1="56.2637" y1="13.2041" x2="57.582" y2="13.2041" gradientUnits="userSpaceOnUse">
<stop stop-color="#D979D2"/>
<stop offset="1" stop-color="#50BF80"/>
</linearGradient>
<linearGradient id="paint6_linear_3340_56743" x1="51.9832" y1="37.3073" x2="52.9907" y2="37.3073" gradientUnits="userSpaceOnUse">
<stop stop-color="#D979D2"/>
<stop offset="1" stop-color="#50BF80"/>
</linearGradient>
<linearGradient id="paint7_linear_3340_56743" x1="18.1836" y1="28.2186" x2="19.5028" y2="28.2186" gradientUnits="userSpaceOnUse">
<stop stop-color="#D979D2"/>
<stop offset="1" stop-color="#50BF80"/>
</linearGradient>
<linearGradient id="paint8_linear_3340_56743" x1="22.2979" y1="35.1869" x2="50.8912" y2="35.1869" gradientUnits="userSpaceOnUse">
<stop stop-color="#D979D2"/>
<stop offset="1" stop-color="#50BF80"/>
</linearGradient>
<linearGradient id="paint9_linear_3340_56743" x1="16.509" y1="29.0916" x2="18.4615" y2="29.0916" gradientUnits="userSpaceOnUse">
<stop stop-color="#D979D2"/>
<stop offset="1" stop-color="#50BF80"/>
</linearGradient>
<linearGradient id="paint10_linear_3340_56743" x1="13.8118" y1="33.332" x2="16.7359" y2="33.332" gradientUnits="userSpaceOnUse">
<stop stop-color="#D979D2"/>
<stop offset="1" stop-color="#50BF80"/>
</linearGradient>
<linearGradient id="paint11_linear_3340_56743" x1="52.3296" y1="17.3037" x2="55.2529" y2="17.3037" gradientUnits="userSpaceOnUse">
<stop stop-color="#D979D2"/>
<stop offset="1" stop-color="#50BF80"/>
</linearGradient>
<linearGradient id="paint12_linear_3340_56743" x1="55.3441" y1="14.026" x2="57.4191" y2="14.026" gradientUnits="userSpaceOnUse">
<stop stop-color="#D979D2"/>
<stop offset="1" stop-color="#50BF80"/>
</linearGradient>
<linearGradient id="paint13_linear_3340_56743" x1="66.4219" y1="31.6234" x2="68.2469" y2="31.6234" gradientUnits="userSpaceOnUse">
<stop stop-color="#D979D2"/>
<stop offset="1" stop-color="#50BF80"/>
</linearGradient>
<linearGradient id="paint14_linear_3340_56743" x1="56.2634" y1="16.9521" x2="57.5818" y2="16.9521" gradientUnits="userSpaceOnUse">
<stop stop-color="#D979D2"/>
<stop offset="1" stop-color="#50BF80"/>
</linearGradient>
<linearGradient id="paint15_linear_3340_56743" x1="67.5781" y1="29.6117" x2="68.5856" y2="29.6117" gradientUnits="userSpaceOnUse">
<stop stop-color="#D979D2"/>
<stop offset="1" stop-color="#50BF80"/>
</linearGradient>
<linearGradient id="paint16_linear_3340_56743" x1="18.1833" y1="31.9676" x2="19.5025" y2="31.9676" gradientUnits="userSpaceOnUse">
<stop stop-color="#D979D2"/>
<stop offset="1" stop-color="#50BF80"/>
</linearGradient>
<linearGradient id="paint17_linear_3340_56743" x1="51.6308" y1="47.0346" x2="67.4175" y2="47.0346" gradientUnits="userSpaceOnUse">
<stop stop-color="#D979D2"/>
<stop offset="1" stop-color="#50BF80"/>
</linearGradient>
</defs>
</svg>
