<svg width="344" height="240" viewBox="0 0 344 240" fill="none" xmlns="http://www.w3.org/2000/svg">
<g opacity="0.55">
<path opacity="0.55" d="M96.2676 48.4255C98.766 51.6635 101.966 54.7223 105.842 56.5771L110.958 58.457L111.633 54.2665C111.116 49.352 110.679 44.9285 109.719 40.787C109.31 42.3845 108.793 44.0658 108.194 45.2815C108.194 45.2815 108.925 42.2506 109.325 39.2196C108.347 35.6054 106.895 32.1917 104.55 28.8329C104.476 30.9113 104.247 34.6581 103.542 36.9881C103.542 36.9881 104.021 30.8727 103.432 27.3223C101.985 25.4754 102.345 25.7531 100.243 23.9011C100.265 26.0358 100.193 28.977 99.7325 30.9592C99.7325 30.9592 99.7962 26.5958 99.3348 23.1174C97.861 21.8766 94.1217 18.5131 92.2939 17.248C92.2939 17.248 89.934 19.607 89.7359 27.0051C91.027 28.512 92.306 30.6653 94.7798 32.667C94.7798 32.667 93.6342 32.0099 89.7229 28.278C89.7503 31.2508 89.3448 34.7236 90.4242 37.8769C91.6595 38.6234 93.0148 38.9006 96.7792 41.1967C96.7792 41.1967 92.9748 39.2578 91.1367 39.7261C92.0302 41.7953 93.3608 44.3244 95.1109 46.8452L99.3353 49.5808L96.2676 48.4255Z" fill="#2A94F4"/>
</g>
<g opacity="0.55">
<path opacity="0.55" d="M99.9926 64.0869C103.67 65.8766 107.897 67.1937 112.193 67.1319L117.611 66.5407L116.353 62.487C113.705 58.3148 111.346 54.5471 108.645 51.2641C108.989 52.877 109.273 54.6127 109.278 55.9679C109.278 55.9679 108.585 52.9281 107.596 50.0353C105.113 47.2332 102.295 44.8208 98.7011 42.8544C99.5582 44.7491 101.019 48.207 101.424 50.6078C101.424 50.6078 99.1336 44.917 97.0282 41.9986C94.9106 40.988 95.3562 41.0764 92.6508 40.3522C93.6196 42.2549 94.8627 44.9212 95.3315 46.9016C95.3315 46.9016 93.4489 42.9646 91.489 40.0546C89.617 39.5983 84.7722 38.2477 82.5728 37.9277C82.5728 37.9277 81.5078 41.0894 84.6197 47.8048C86.4461 48.5805 88.5492 49.9404 91.655 50.6339C91.655 50.6339 90.337 50.5548 85.1745 48.9507C86.5209 51.6012 87.7018 54.8922 90.0705 57.2367C91.509 57.3562 92.8456 57.0018 97.2388 57.3851C97.2388 57.3851 92.9694 57.3395 91.5308 58.5766C93.2512 60.0323 95.5673 61.7066 98.2555 63.1865L103.255 63.7586L99.9926 64.0869Z" fill="#2A94F4"/>
</g>
<path d="M258.126 156.677C257.38 160.552 255.075 162.863 251.192 163.592C250.124 162.952 248.943 163.205 247.809 163.204C215.673 163.191 183.537 163.191 151.401 163.205C150.268 163.205 149.086 162.947 148.021 163.6C143.797 162.72 141.376 160.22 141.05 155.838C142.053 150.131 141.333 144.377 141.476 138.648C141.61 133.29 141.509 133.288 147.155 134.106C149 139.288 147.734 144.636 147.921 149.898C148.162 156.693 147.981 156.708 154.881 156.709C185.066 156.713 215.252 156.713 245.437 156.709C251.218 156.708 251.229 156.697 251.23 150.954C251.236 131.456 251.141 111.958 251.309 92.4613C251.343 88.5197 250.224 87.1077 246.156 87.2129C236.341 87.4663 226.516 87.3194 216.695 87.2696C215.17 87.2617 213.487 87.8217 212.165 86.4938C210.743 81.6007 211.429 80.3924 216.401 80.4254C227.593 80.5003 238.795 79.8612 249.978 80.7961C250.697 80.8561 251.414 80.8165 252.058 80.4189C255.238 81.7048 257.604 83.7056 258.134 87.3231C257.517 88.2342 257.723 89.2699 257.723 90.2601C257.712 111.419 257.712 132.577 257.723 153.736C257.724 154.727 257.524 155.761 258.126 156.677Z" fill="#CCE9FF"/>
<path d="M230.535 120.29C227.358 120.289 224.179 120.229 221.004 120.308C218.434 120.372 217.32 119.245 217.379 116.674C217.461 113.066 217.484 109.451 217.372 105.844C217.289 103.18 218.735 102.147 221.058 102.123C227.556 102.054 234.056 102.053 240.555 102.118C242.987 102.143 244.228 103.584 244.249 105.997C244.281 109.607 244.207 113.219 244.28 116.828C244.335 119.504 242.957 120.364 240.501 120.309C237.18 120.234 233.857 120.291 230.535 120.29Z" fill="#CCE9FF"/>
<path d="M148.022 163.604C149.319 162.23 151.006 162.803 152.52 162.802C183.91 162.768 215.301 162.768 246.691 162.802C248.206 162.803 249.891 162.23 251.192 163.596C216.802 163.599 182.412 163.601 148.022 163.604Z" fill="#CCE9FF"/>
<path d="M252.06 80.4187C250.752 81.7767 249.067 81.1986 247.549 81.2061C237.456 81.2568 227.355 81.454 217.272 81.1284C212.958 80.9889 211.54 82.4813 212.167 86.4927C209.684 83.3617 210.104 81.2638 213.527 80.1285C214.592 79.775 215.763 79.5295 216.876 79.562C228.603 79.9034 240.37 78.6249 252.06 80.4187Z" fill="#CCE9FF"/>
<path d="M258.126 156.674C256.94 155.673 257.31 154.297 257.309 153.048C257.29 132.346 257.29 111.644 257.309 90.9419C257.31 89.6927 256.942 88.3156 258.136 87.3203C258.132 110.438 258.129 133.556 258.126 156.674Z" fill="#CCE9FF"/>
<path d="M236.418 147.334C234.176 146.475 230.005 148.764 229.973 145.135C229.937 141.012 234.228 143.028 236.548 142.955C238.788 142.884 242.931 141.29 242.971 144.856C243.017 149.002 238.665 146.371 236.418 147.334Z" fill="#CCE9FF"/>
<path d="M199.667 147.166C198.224 147.166 196.78 147.163 195.337 147.166C193.975 147.169 193.169 146.613 193.121 145.138C193.067 143.464 193.909 142.804 195.491 142.817C198.089 142.837 200.688 142.807 203.285 142.836C204.971 142.854 206.088 143.599 206.004 145.434C205.917 147.348 204.405 147.14 203.131 147.18C201.977 147.217 200.822 147.188 199.667 147.188C199.667 147.18 199.667 147.173 199.667 147.166Z" fill="#CCE9FF"/>
<path d="M218.235 142.648C220.103 143.859 224.262 140.741 224.128 145.159C224.018 148.792 220.282 147.135 218.262 147.057C215.942 146.969 211.668 148.956 211.729 144.846C211.781 141.251 215.928 143.527 218.235 142.648Z" fill="#CCE9FF"/>
<path d="M180.492 147.179C178.949 146.3 175.154 148.99 175.062 145.082C174.967 141.09 178.699 143.321 180.719 142.873C182.081 142.57 183.567 142.812 184.998 142.83C186.421 142.849 187.658 143.309 187.714 144.921C187.769 146.522 186.62 147.132 185.164 147.17C183.734 147.208 182.303 147.179 180.492 147.179Z" fill="#CCE9FF"/>
<path d="M162.788 142.646C164.617 143.893 168.819 140.696 168.612 145.198C168.447 148.766 164.735 147.143 162.708 147.059C160.406 146.963 156.121 148.975 156.238 144.803C156.338 141.243 160.467 143.53 162.788 142.646Z" fill="#CCE9FF"/>
<path d="M147.156 134.103C142.691 133.513 141.707 135.586 141.782 139.815C141.877 145.134 142.946 150.581 141.05 155.835C141.04 149.911 141.018 143.986 141.024 138.063C141.03 132.735 141.859 132.208 147.156 134.103Z" fill="#CCE9FF"/>
<path d="M283.3 209.141H22.8822C20.1126 209.141 17.8677 206.896 17.8677 204.127V200.511C17.8677 197.741 20.1126 195.496 22.8822 195.496H283.3C286.07 195.496 288.314 197.741 288.314 200.511V204.127C288.314 206.896 286.069 209.141 283.3 209.141Z" fill="#E8E8E8"/>
<path d="M188.412 127.739H112.627C103.573 127.739 96.2324 120.399 96.2324 111.344V63.3147C96.2324 54.2604 103.572 46.9199 112.627 46.9199H188.412C197.467 46.9199 204.807 54.2599 204.807 63.3147V111.344C204.807 120.399 197.467 127.739 188.412 127.739Z" fill="#F2F2F2"/>
<path d="M96.2324 57.9713C96.2324 51.868 101.18 46.9199 107.284 46.9199H193.756C199.86 46.9199 204.808 51.8675 204.808 57.9713V70.5877H96.2324V57.9713Z" fill="#F8AE00"/>
<path d="M82.7358 87.8347L95.9187 85.1195L97.2427 82.2379C97.2427 82.2379 97.0851 82.1602 96.4754 82.6416C96.3023 82.7774 95.9949 83.7173 95.7638 83.7875C95.455 83.8801 94.7559 84.6591 94.3355 84.5377C91.2962 83.668 86.936 81.7853 83.3618 81.9607C77.6101 82.2416 82.5353 87.9654 82.7358 87.8347Z" fill="#B97A59"/>
<path d="M48.3999 92.6735C48.3999 92.6735 51.5406 88.2557 65.5151 84.5857C79.7918 80.8366 79.7253 81.8087 79.7253 81.8087L83.0753 81.7715L84.5175 87.6729L61.886 94.772L48.3999 92.6735Z" fill="#FFBE55"/>
<path d="M55.6902 96.8003L71.2613 91.5597L76.7353 89.1152L74.0286 89.4264C74.0286 89.4264 72.3659 89.7473 64.0311 91.8058C59.3351 92.9624 57.5427 93.7531 55.1475 94.839L55.6902 96.8003Z" fill="#FFBE55"/>
<path d="M80.6592 83.5156L81.3359 87.3084L81.6307 88.2414L84.3748 87.6465L82.6879 83.5919L80.6592 83.5156Z" fill="#FFBE55"/>
<path d="M95.9282 80.3457C96.77 79.729 98.1741 78.4472 98.2527 79.1272L95.8287 81.5186L95.1864 83.0604L95.6482 84.3245L94.5404 84.525C94.2762 84.8649 94.0437 85.0924 93.5014 84.637L93.0396 84.7384C93.3223 83.4934 93.4051 82.9599 93.6232 82.6367L94.638 81.3745C94.9152 80.9936 95.9282 80.3457 95.9282 80.3457Z" fill="#B97A59"/>
<path d="M45.9055 130.805C45.9055 130.805 52.699 154.856 58.1414 163.466C63.5843 172.077 65.4823 160.876 65.4823 160.876C65.4823 160.876 64.9907 145.711 64.1545 140.745C63.3039 135.694 58.7246 120.88 58.7246 120.88L42.9136 120.781C42.9131 120.781 43.3131 121.601 45.9055 130.805Z" fill="#0B4870"/>
<path d="M53.4113 120.876C53.4113 120.876 48.86 160.33 48.208 162.313C46.0053 169.019 40.9689 164.689 40.1922 162.453C39.4141 160.219 38.1184 143.677 38.3774 131.605C38.6351 119.534 38.6351 120.325 38.6351 120.325L53.4113 120.876Z" fill="#0B4870"/>
<path d="M39.5425 198.344C39.3077 198.627 39.4797 199.375 39.4797 199.375C39.4797 199.375 43.573 199.829 44.8901 199.52C45.2319 199.44 45.8105 199.146 46.3551 198.834C46.4467 198.781 46.6095 198.467 46.6983 198.414C46.863 198.316 46.9495 198.48 47.0895 198.391C47.455 198.161 47.7108 197.983 47.715 197.959C48.075 196.082 47.596 195.327 47.596 195.327C47.596 195.327 44.1101 194.168 43.4576 194.975C41.92 196.875 40.0541 197.722 39.5425 198.344Z" fill="#0B4870"/>
<path d="M64.998 196.659L65.5813 199.708H68.6918C68.6918 199.708 68.8643 199.277 69.1275 199.277C69.3489 199.277 69.6359 199.708 69.9377 199.708C70.5921 199.708 71.3172 199.708 71.6078 199.708C72.1911 199.708 77.8498 199.708 77.8498 199.708C77.8498 199.708 77.9912 199.067 77.8191 198.845C77.7307 198.732 77.2107 198.535 76.8633 198.437C75.2574 197.986 70.6586 196.578 69.8591 195.043C68.8866 193.175 64.998 196.659 64.998 196.659Z" fill="#0B4870"/>
<path d="M45.5633 77.9088C45.8075 78.8869 45.4652 79.8138 44.7997 79.9794C44.1341 80.1449 43.3974 79.4864 43.1542 78.5078L42.8473 77.2777C42.6031 76.2996 42.9463 75.3722 43.6109 75.2071C44.2769 75.0416 45.0132 75.7001 45.2569 76.6782L45.5633 77.9088Z" fill="white"/>
<path d="M50.4077 85.8298C50.2915 87.2158 49.8669 86.754 49.0823 86.8107C48.339 86.8107 47.5954 86.8107 46.8512 86.8107C46.0671 86.754 46.1652 87.3972 46.049 86.0117C45.8662 83.7267 44.8402 79.5954 44.657 77.3099C44.5356 75.9389 45.0713 73.1874 46.2587 72.3744C47.3442 71.6512 48.5897 71.6512 49.6752 72.3744C50.8621 73.1869 51.3984 75.9389 51.2765 77.3099C51.1403 79.4796 50.6533 83.3867 50.4077 85.8298Z" fill="#B97A59"/>
<path d="M30.5137 115.17L40.6228 125.516C40.6228 125.516 28.4329 122.72 27.8911 117.676C27.3488 112.632 30.5137 115.17 30.5137 115.17Z" fill="#B97A59"/>
<path d="M61.8875 85.7109L52.6942 87.7978L48.2698 89.1186L42.8 88.494L36.7729 91.1055C36.7729 91.1055 34.0517 93.7192 36.579 102.117C39.1072 110.516 38.1347 123.673 38.1347 123.673L59.5858 124.629C59.5858 124.629 60.37 112.388 61.4136 100.302C62.2317 90.8255 60.9374 87.7861 61.8875 85.7109Z" fill="#FFBE55"/>
<path d="M40.6634 91.4792C40.6634 91.4792 37.3212 88.8631 34.0531 93.7186C29.0385 101.17 25.6936 109.394 25.1104 111.074C24.5277 112.754 23.7496 117.793 26.0834 119.286C28.4158 120.78 28.4158 120.78 28.4158 120.78L33.2755 117.793L32.4988 116.3L32.109 115.367C32.109 115.367 34.8307 109.395 37.7459 103.982C40.6633 98.5713 40.6634 91.4792 40.6634 91.4792Z" fill="#FFBE55"/>
<path d="M51.8873 80.6379C51.5297 81.9308 50.9967 82.2391 50.0521 82.3805C49.1535 82.4698 48.9345 82.5587 48.0359 82.6484C47.0844 82.6949 46.1128 81.4336 45.8914 80.2816C45.5366 78.3808 44.5022 76.82 44.1478 74.9201C43.919 73.7816 44.4069 72.7607 45.7942 71.9357C47.0644 71.1976 48.5699 69.6879 49.9237 70.166C51.4069 70.7074 52.2161 72.9574 52.1478 74.1253C52.6338 76.0614 52.325 78.711 51.8873 80.6379Z" fill="#B97A59"/>
<path d="M48.2066 89.1514L46.4072 92.1L42.8618 88.1742L44.4282 86.4883L48.2066 89.1514Z" fill="#FFBE55"/>
<path d="M51.9388 86.4434L49.7925 88.6139L51.2319 91.1686L52.9904 87.8009L51.9388 86.4434Z" fill="#FFBE55"/>
<path d="M49.3595 145.478C49.3595 145.478 48.3512 160.442 48.4953 168.355C48.6028 174.321 48.5037 185.576 47.5959 195.324C47.5405 195.92 43.9849 194.72 43.9849 194.72C43.9849 194.72 39.5136 158.352 38.995 152.241C38.4769 146.131 45.4718 141.112 49.3595 145.478Z" fill="#0B4870"/>
<path d="M63.7999 162.042C63.7999 162.042 62.4246 162.343 58.097 162.718C56.125 162.888 64.9975 196.657 64.9975 196.657L68.0122 194.687L65.3784 159.99L63.7999 162.042Z" fill="#0B4870"/>
<path d="M43.457 73.4358L44.15 74.9203C44.15 74.9203 45.6201 73.2642 46.6573 71.9066C46.9842 71.4778 50.3417 71.4396 51.1747 71.5889C51.7811 71.6978 51.8523 72.4745 51.9909 72.9265C52.4895 74.5399 51.7783 70.2081 51.7783 70.2081C51.7783 70.2081 50.6403 68.1692 48.5065 67.9989C47.3275 67.9045 46.7782 68.5896 46.3313 69.4788C46.2261 69.6867 47.6298 69.1407 47.3865 69.11C47.3247 69.103 45.9443 70.3141 45.902 70.4067C45.6922 70.8671 45.4662 71.3317 45.1644 71.7373C44.0258 73.2656 43.457 73.4358 43.457 73.4358Z" fill="#0B4870"/>
<path d="M28.3071 119.834L32.498 116.301L34.137 118.538L30.034 121.884L28.3071 119.834Z" fill="#FFBE55"/>
<path d="M37.6204 121.557C38.2939 121.759 38.2567 121.717 38.2567 121.717C38.2567 121.717 38.2199 122.617 38.7534 123.276C39.0185 123.604 40.0021 124.523 40.0021 124.523L41.4462 125.904L42.1657 126.489C42.1657 126.489 42.5987 126.791 42.6415 126.951C42.7652 127.413 42.3694 127.335 42.3694 127.335L39.3808 125.3L41.6378 127.93C41.6378 127.93 41.8713 128.316 41.7281 128.503C41.5946 128.676 41.4941 128.574 41.4941 128.574L38.252 126.199L39.2655 127.688C39.2655 127.688 39.485 128.07 39.3552 128.259C39.2124 128.467 39.1799 128.528 39.1799 128.528L36.7065 125.785C36.7061 125.785 36.9465 121.357 37.6204 121.557Z" fill="#B97A59"/>
<path d="M39.0626 125.865L40.5443 127.808C40.5443 127.808 40.9229 128.207 40.9848 128.501C41.0564 128.839 40.768 128.911 40.768 128.911L38.2515 126.199L39.0626 125.865Z" fill="#B97A59"/>
<path d="M48.0597 124.043H50.3265C52.6975 112.298 52.5855 100.18 49.9763 88.4766C49.2922 88.75 48.6085 89.0249 47.9253 89.2988C50.4605 100.739 50.5014 112.59 48.0597 124.043Z" fill="#FFBE55"/>
<path d="M50.8045 82.2929C50.8045 82.2929 47.228 83.058 45.6128 79.8535C45.6128 79.8535 45.664 83.703 50.6771 83.4635L50.8045 82.2929Z" fill="#AD6D51"/>
<path d="M52.6687 77.3546C52.6687 77.3546 52.5003 74.4743 51.2967 73.4358C50.093 72.3973 46.3458 73.3125 45.9626 75.7398C45.5794 78.1671 45.6222 79.4656 45.6222 79.4656L45.2603 78.4862C45.2603 78.4862 45.0473 81.4455 45.2603 82.2761C45.4733 83.1068 43.919 80.6581 43.4079 78.8271C42.8968 76.996 41.8964 75.1668 43.5567 71.9401C45.2171 68.7133 49.9865 68.3301 49.9865 68.3301L48.6661 69.1816C48.6661 69.1816 51.3069 67.8617 52.9249 68.6705L51.1111 69.437L54.2872 70.2034L52.0599 70.2886L54.7555 71.5661H53.0524L52.6687 77.3546Z" fill="#0B4870"/>
<path d="M49.7917 86.4434H51.938C51.938 86.4434 50.2498 89.1395 48.208 89.1553C46.1663 89.1706 44.4297 86.4917 44.4297 86.4917L46.1798 86.4434H49.7917V86.4434Z" fill="#B97A59"/>
<path d="M124.262 194.901C124.262 195.955 123.407 196.809 122.353 196.809H114.991C113.937 196.809 113.083 195.955 113.083 194.901V177.723C113.083 176.669 113.937 175.814 114.991 175.814H122.353C123.407 175.814 124.262 176.669 124.262 177.723V194.901Z" fill="#2A94F4"/>
<path opacity="0.4" d="M119.555 156.038C119.555 156.038 113.529 168.288 122.408 170.374C131.288 172.461 131.544 163.22 130.634 159.412C129.725 155.604 143.815 145.365 132.194 136.308C120.573 127.25 111.515 151.365 119.555 156.038Z" fill="#2A94F4"/>
<path opacity="0.4" d="M108.334 162.683C108.334 162.683 108.05 170.744 113.341 169.72C118.632 168.696 116.534 163.653 115.122 161.821C113.71 159.988 118.827 151.06 110.371 148.991C101.915 146.921 102.869 162.11 108.334 162.683Z" fill="#2A94F4"/>
<path d="M109.236 155.09L115.78 175.812" stroke="#4D4D4D" stroke-width="0.465086" stroke-miterlimit="10"/>
<path d="M113.055 159.309L111.669 162.788L108.51 161.048" stroke="#4D4D4D" stroke-width="0.465086" stroke-miterlimit="10"/>
<path d="M126.653 143.365L121.039 175.811" stroke="#4D4D4D" stroke-width="0.465086" stroke-miterlimit="10"/>
<path d="M129.947 148.274L125.296 151.212L122.312 147.184" stroke="#4D4D4D" stroke-width="0.465086" stroke-miterlimit="10"/>
<path d="M128.673 155.077L124.023 158.014L121.039 153.986" stroke="#4D4D4D" stroke-width="0.465086" stroke-miterlimit="10"/>
<path opacity="0.4" d="M271.07 188.412C271.07 188.412 300.208 161.871 329.347 181.754C329.347 181.754 315.048 163.464 294.501 166.191C273.953 168.918 271.07 188.412 271.07 188.412Z" fill="#2A94F4"/>
<path opacity="0.4" d="M271.963 189.48C271.963 189.48 275.753 150.248 310.7 145.434C310.7 145.434 287.825 141.47 274.422 157.281C261.018 173.093 271.963 189.48 271.963 189.48Z" fill="#2A94F4"/>
<path d="M271.706 189.314C271.706 189.314 285.36 152.34 320.38 156.582C320.38 156.582 299.268 146.924 282.281 158.802C265.294 170.68 271.706 189.314 271.706 189.314Z" fill="#0B4870"/>
<path d="M259.13 189.23C259.13 193.345 262.466 196.681 266.581 196.681H278.039C282.154 196.681 285.49 193.345 285.49 189.23C285.49 185.115 282.154 181.779 278.039 181.779H266.581C262.466 181.779 259.13 185.115 259.13 189.23Z" fill="#2A94F4"/>
<path opacity="0.41" d="M75.1683 63.2804L65.0425 58.4492L60.2113 68.575L70.3371 73.4062L75.1683 63.2804Z" fill="#2A94F4"/>
<path opacity="0.22" d="M88.2712 76.5962C90.8046 76.5962 92.8584 74.5424 92.8584 72.009C92.8584 69.4756 90.8046 67.4219 88.2712 67.4219C85.7378 67.4219 83.6841 69.4756 83.6841 72.009C83.6841 74.5424 85.7378 76.5962 88.2712 76.5962Z" fill="#2A94F4"/>
<path opacity="0.41" d="M248.191 61.6847L238.065 56.8535L233.234 66.9793L243.36 71.8105L248.191 61.6847Z" fill="#0E538C"/>
<path opacity="0.22" d="M261.301 75.0024C263.834 75.0024 265.888 72.9487 265.888 70.4153C265.888 67.8819 263.834 65.8281 261.301 65.8281C258.767 65.8281 256.713 67.8819 256.713 70.4153C256.713 72.9487 258.767 75.0024 261.301 75.0024Z" fill="#0E538C"/>
<path d="M112.45 107.865H118.822C123.336 107.865 125.513 105.715 125.513 102.555C125.513 99.7935 123.655 98.3863 121.955 97.9084C123.044 97.3508 124.265 96.1029 124.265 94.0584C124.265 91.4032 122.353 89.2791 119.114 89.2791H112.45C112.211 89.2791 112.051 89.465 112.051 89.7039V107.44C112.051 107.679 112.211 107.865 112.45 107.865ZM116.592 103.829V100.006H118.53C119.858 100.006 120.813 100.457 120.813 101.891C120.813 103.272 119.858 103.829 118.53 103.829H116.592ZM116.592 96.4746V93.315H118.105C119.247 93.315 119.937 93.6867 119.937 94.855C119.937 96.0498 119.247 96.4746 118.105 96.4746H116.592ZM128.028 107.865H131.639C131.878 107.865 132.063 107.679 132.063 107.44V101.466C132.063 99.4484 133.126 98.6253 134.692 98.6253C135.143 98.6253 135.409 98.6784 135.675 98.758C136.046 98.8377 136.232 98.7315 136.232 98.4129V95.4656C136.232 95.2267 136.179 95.0408 135.967 94.8815C135.781 94.7222 135.436 94.5363 134.772 94.5363C133.285 94.5363 132.488 95.5984 132.063 97.0587L131.931 95.3063C131.904 94.9612 131.745 94.855 131.532 94.855H128.028C127.789 94.855 127.603 95.0408 127.603 95.2798V107.44C127.603 107.679 127.789 107.865 128.028 107.865ZM140.569 93.0229C141.95 93.0229 142.985 91.9608 142.985 90.6067C142.985 89.2791 141.95 88.2171 140.569 88.2171C139.162 88.2171 138.153 89.2791 138.153 90.6067C138.153 91.9608 139.162 93.0229 140.569 93.0229ZM138.312 107.44C138.312 107.679 138.498 107.865 138.737 107.865H142.401C142.64 107.865 142.826 107.679 142.826 107.44V95.2798C142.826 95.0408 142.64 94.855 142.401 94.855H138.737C138.498 94.855 138.312 95.0408 138.312 95.2798V107.44ZM151.014 108.184C152.793 108.184 154.041 107.494 154.917 106.352L154.97 107.44C154.97 107.679 155.156 107.865 155.395 107.865H158.661C158.899 107.865 159.112 107.679 159.112 107.44V89.3057C159.112 89.0667 158.926 88.8808 158.687 88.8808H155.049C154.811 88.8808 154.625 89.0667 154.625 89.3057V95.9436C153.775 95.0143 152.633 94.5363 151.014 94.5363C147.429 94.5363 144.96 97.5367 144.96 101.36C144.96 105.21 147.429 108.184 151.014 108.184ZM149.314 101.36C149.314 99.6873 150.483 98.5722 152.023 98.5722C153.589 98.5722 154.678 99.6608 154.678 101.334C154.678 103.033 153.589 104.148 152.023 104.148C150.483 104.148 149.314 103.059 149.314 101.36ZM168.148 113.308C171.281 113.308 175.131 111.954 175.131 107.042V95.2798C175.131 95.0408 174.945 94.855 174.706 94.855H171.413C171.174 94.855 170.989 95.0408 170.989 95.2798L170.909 96.0763C170.139 95.0939 168.997 94.5363 167.245 94.5363C163.607 94.5363 161.218 97.218 161.218 101.041C161.218 104.865 163.607 107.547 167.245 107.547C168.918 107.547 170.112 106.962 170.882 106.007V107.042C170.882 109.087 169.21 109.724 167.696 109.724C166.634 109.724 165.519 109.405 164.377 108.795C164.032 108.609 163.767 108.741 163.607 109.034L162.678 110.839C162.545 111.105 162.545 111.503 162.837 111.689C164.244 112.777 166.156 113.308 168.148 113.308ZM165.572 101.041C165.572 99.5015 166.661 98.5191 168.148 98.5191C169.634 98.5191 170.696 99.4749 170.696 101.015C170.696 102.581 169.634 103.564 168.148 103.564C166.661 103.564 165.572 102.608 165.572 101.041ZM184.438 108.184C186.297 108.184 187.969 107.679 189.058 106.564C189.323 106.325 189.297 106.113 189.191 105.954L187.969 104.254C187.837 104.042 187.704 103.989 187.491 104.095C186.403 104.679 185.553 104.706 184.81 104.706C183.19 104.706 182.048 104.254 181.57 103.059H188.607C189.908 103.059 190.253 102.183 190.253 100.776C190.253 97.4305 187.943 94.5363 183.96 94.5363C179.898 94.5363 177.216 97.4836 177.216 101.307C177.216 105.316 180.163 108.184 184.438 108.184ZM181.491 100.006C181.836 98.6784 182.845 98.1739 183.987 98.1739C185.075 98.1739 186.031 98.6253 186.297 100.006H181.491Z" fill="#F8AE00"/>
</svg>
