<svg width="100" height="100" viewBox="0 0 100 100" fill="none" xmlns="http://www.w3.org/2000/svg">
<path d="M10.2773 57.9332C9.38731 67.069 10.3981 77.2415 17.549 82.6473C20.599 84.954 24.3881 86.3265 28.0281 86.4173H80.6606C100.455 63.6373 82.6873 59.5598 82.2115 56.059C81.7356 52.5582 84.6073 49.8432 85.454 46.5807C87.4315 38.9623 87.1206 30.9657 81.4773 25.6173C76.3456 20.7507 70.9698 21.014 65.4365 24.6532C61.3748 27.324 57.0131 31.2715 52.3331 27.954C50.869 26.4923 49.699 24.6857 48.4481 23.0565C44.6748 18.1432 40.1665 13.584 33.7781 13.584C21.6756 14.3998 16.9073 31.5598 19.6323 43.4265C19.9898 44.9848 20.6681 47.7665 19.4748 49.0932C18.7098 49.9457 17.4123 49.7782 16.4456 49.8315C12.2681 50.0657 10.7348 53.2382 10.2773 57.9332Z" fill="#EDEDF4"/>
<path d="M67.8754 22.3491H30.9737C28.9224 22.3491 27.2595 24.012 27.2595 26.0633V82.5383C27.2595 84.5896 28.9224 86.2525 30.9737 86.2525H67.8754C69.9266 86.2525 71.5895 84.5896 71.5895 82.5383V26.0633C71.5895 24.012 69.9266 22.3491 67.8754 22.3491Z" fill="#353406"/>
<path d="M68.8584 82.8899V26.064C68.8584 25.6696 68.5387 25.3499 68.1442 25.3499L30.7059 25.3499C30.3115 25.3499 29.9917 25.6696 29.9917 26.064V82.8899C29.9917 83.2843 30.3115 83.604 30.7059 83.604H68.1442C68.5387 83.604 68.8584 83.2843 68.8584 82.8899Z" fill="url(#paint0_linear_3340_56879)"/>
<path d="M50.2991 23.3201H48.5516C48.3086 23.3201 48.1116 23.5171 48.1116 23.7601V23.7609C48.1116 24.0039 48.3086 24.2009 48.5516 24.2009H50.2991C50.5421 24.2009 50.7391 24.0039 50.7391 23.7609V23.7601C50.7391 23.5171 50.5421 23.3201 50.2991 23.3201Z" fill="#F1F29D"/>
<path d="M51.8551 23.3201H51.8543C51.6113 23.3201 51.4143 23.5171 51.4143 23.7601V23.7609C51.4143 24.0039 51.6113 24.2009 51.8543 24.2009H51.8551C52.0981 24.2009 52.2951 24.0039 52.2951 23.7609V23.7601C52.2951 23.5171 52.0981 23.3201 51.8551 23.3201Z" fill="#F1F29D"/>
<path d="M49.699 80.6278L45.4165 78.1028C45.3286 78.0492 45.2278 78.0204 45.1249 78.0195H22.1665C21.9824 78.0233 21.8043 77.9539 21.6712 77.8266C21.5381 77.6993 21.4609 77.5244 21.4565 77.3403V70.757C21.4624 70.5739 21.5403 70.4005 21.6732 70.2744C21.8061 70.1484 21.9834 70.0798 22.1665 70.0836H49.0832C49.4249 70.0836 49.7015 70.3878 49.7015 70.7628L49.699 80.6278Z" fill="#9DD7C1"/>
<path d="M22.1666 70.0838H49.0833C49.4249 70.0838 49.7016 70.388 49.7016 70.763V80.6296L45.4166 78.103C45.3287 78.0494 45.2279 78.0206 45.1249 78.0196H22.1666C21.9825 78.0234 21.8043 77.9541 21.6712 77.8268C21.5382 77.6995 21.461 77.5246 21.4566 77.3405V70.7571C21.4625 70.574 21.5403 70.4007 21.6733 70.2746C21.8062 70.1485 21.9834 70.08 22.1666 70.0838ZM22.1666 69.6821C22.0225 69.6803 21.8794 69.7068 21.7455 69.7602C21.6116 69.8137 21.4896 69.893 21.3864 69.9936C21.2831 70.0941 21.2007 70.2141 21.1439 70.3465C21.087 70.479 21.0568 70.6213 21.0549 70.7655V77.3488C21.0568 77.4929 21.087 77.6353 21.1439 77.7677C21.2007 77.9002 21.2831 78.0201 21.3864 78.1207C21.4896 78.2213 21.6116 78.3006 21.7455 78.354C21.8794 78.4075 22.0225 78.434 22.1666 78.4321H45.1208C45.1503 78.433 45.179 78.4416 45.2041 78.4571L49.4908 80.983L50.0966 81.3396V70.7613C50.0966 70.1655 49.6391 69.678 49.0766 69.678L22.1666 69.6821Z" fill="#3A7A54"/>
<path d="M43.819 72.1223H27.3332C27.0561 72.1223 26.8315 72.3467 26.8315 72.6236C26.8315 72.9004 27.0561 73.1248 27.3332 73.1248H43.819C44.0961 73.1248 44.3207 72.9004 44.3207 72.6236C44.3207 72.3467 44.0961 72.1223 43.819 72.1223Z" fill="#F1873C"/>
<path d="M40.8299 74.6545H27.3332C27.0561 74.6545 26.8315 74.879 26.8315 75.1558C26.8315 75.4326 27.0561 75.657 27.3332 75.657H40.8299C41.1069 75.657 41.3315 75.4326 41.3315 75.1558C41.3315 74.879 41.1069 74.6545 40.8299 74.6545Z" fill="#F1873C"/>
<path d="M50.6775 64.6243C50.6775 64.6243 54.8533 61.9385 55.3233 61.5776C55.4231 61.5288 55.53 61.4959 55.64 61.4801H78.0433C78.4325 61.4801 78.7483 61.1135 78.7483 60.6601V52.7201C78.7483 52.2676 78.4333 51.9001 78.0433 51.9001H51.3475C50.9775 51.9001 50.6808 52.2676 50.6808 52.7201L50.6775 64.6243Z" fill="#9DD7C1"/>
<path d="M51.3474 51.9001H78.0432C78.4332 51.9001 78.7482 52.2676 78.7482 52.7201V60.6601C78.7482 61.1134 78.4324 61.4801 78.0432 61.4801H55.6399C55.5299 61.4959 55.4231 61.5288 55.3232 61.5776C54.8532 61.9384 50.6774 64.6243 50.6774 64.6243V52.7201C50.6774 52.2676 50.9774 51.9001 51.3441 51.9001M50.2607 64.6243V65.3743L50.8941 64.9659C51.0607 64.8584 54.8941 62.3918 55.5266 61.9301C55.5661 61.913 55.6068 61.8985 55.6482 61.8868H78.0432C78.6591 61.8868 79.1599 61.3351 79.1599 60.6559V52.7201C79.1599 52.0409 78.6599 51.4893 78.0432 51.4893H51.3474C50.7516 51.4893 50.2641 52.0409 50.2641 52.7201" fill="#3A7A54"/>
<path d="M56.105 39.4179L55.3342 39.3254L54.5625 39.2329L53.5667 47.3804L56.4167 54.4512L57.9775 53.7646L59.5383 53.0779L55.8383 46.3812L56.105 39.4179Z" fill="#FFC785"/>
<path d="M55.6109 37.0205C55.4026 36.9955 55.1926 37.0514 55.0242 37.1764C54.8557 37.3015 54.7415 37.4863 54.7051 37.693L54.5001 38.8713C54.4801 38.9813 54.4827 39.0942 54.5079 39.2031C54.5331 39.312 54.5802 39.4146 54.6465 39.5047C54.7127 39.5947 54.7967 39.6703 54.8931 39.7267C54.9896 39.7832 55.0966 39.8193 55.2076 39.833L55.3376 39.848C55.4483 39.8613 55.5605 39.852 55.6675 39.8205C55.7745 39.789 55.8739 39.7361 55.9597 39.6649C56.0455 39.5936 56.1159 39.5057 56.1665 39.4063C56.2171 39.307 56.247 39.1984 56.2542 39.0871L56.3317 37.8921C56.3463 37.6821 56.2796 37.4745 56.1454 37.3123C56.0113 37.1501 55.8199 37.0456 55.6109 37.0205Z" fill="#FFC785"/>
<path d="M56.3715 54.5188L54.8782 50.9004L57.5107 49.4546C57.6773 49.3646 57.8973 49.4496 58.0048 49.6446L59.6015 53.1088L56.3715 54.5188Z" fill="#4CBDFD"/>
<path d="M63.3456 43.359L62.7193 43.7108C62.2378 43.9812 62.0667 44.5908 62.3371 45.0723C62.6075 45.5539 63.2171 45.725 63.6987 45.4545L64.325 45.1028C64.8065 44.8323 64.9777 44.2227 64.7072 43.7412C64.4368 43.2597 63.8272 43.0885 63.3456 43.359Z" fill="#1A4B98"/>
<path d="M61.1679 43.0315C62.0549 43.1486 62.859 43.6132 63.4034 44.3232C63.9478 45.0332 64.1879 45.9303 64.0708 46.8173L63.5085 51.077C63.4946 51.182 63.4396 51.2771 63.3556 51.3415C63.2716 51.406 63.1654 51.4344 63.0605 51.4205L57.16 50.6416C57.0551 50.6277 56.9599 50.5728 56.8955 50.4888C56.8311 50.4047 56.8027 50.2986 56.8165 50.1936L57.3788 45.9339C57.4959 45.0469 57.9606 44.2428 58.6705 43.6984C59.3805 43.154 60.2777 42.914 61.1646 43.0311L61.1679 43.0315Z" fill="#1A4B98"/>
<path d="M61.5125 52.9793C60.5125 52.8577 59.505 52.7602 58.5 52.6643C58.8333 51.1185 59.1333 49.5677 59.4592 48.021C60.2436 48.1321 61.0278 48.2432 61.8117 48.3543C61.6961 49.896 61.5964 51.4377 61.5125 52.9793Z" fill="#FFC785"/>
<path d="M58.3974 49.4424L58.9157 49.5108C60.0824 49.6649 62.2849 48.9908 62.439 47.8208L62.5832 46.7224C62.6573 46.1616 62.5059 45.5943 62.1622 45.1449C61.8185 44.6956 61.3106 44.401 60.7499 44.3258L60.2315 44.2574C59.6707 44.1833 59.1034 44.3347 58.6541 44.6784C58.2047 45.0222 57.9101 45.5301 57.8349 46.0908L57.6899 47.1899C57.5315 48.3633 57.2282 49.2874 58.3974 49.4424Z" fill="#FFC785"/>
<path d="M61.7775 47.4105C61.6941 48.0147 62.1108 48.458 62.6683 48.4938C62.9494 48.5136 63.2276 48.4265 63.4472 48.2499C63.6668 48.0732 63.8116 47.8202 63.8525 47.5413C63.9358 46.938 63.5191 46.4938 62.9608 46.458C62.6797 46.4376 62.4012 46.5246 62.1817 46.7013C61.9621 46.8781 61.8176 47.1315 61.7775 47.4105Z" fill="#FFC785"/>
<path d="M58.5259 43.7743L57.8891 44.1067C57.3996 44.3624 57.2099 44.9665 57.4655 45.456C57.7211 45.9456 58.3252 46.1353 58.8148 45.8796L59.4516 45.5472C59.9411 45.2916 60.1308 44.6875 59.8752 44.1979C59.6196 43.7083 59.0155 43.5187 58.5259 43.7743Z" fill="#1A4B98"/>
<path d="M61.8165 44.6057L61.2741 44.1347C60.8571 43.7726 60.2255 43.8171 59.8634 44.2341C59.5013 44.6511 59.5458 45.2827 59.9628 45.6448L60.5051 46.1158C60.9222 46.4779 61.5538 46.4334 61.9159 46.0164C62.278 45.5994 62.2335 44.9678 61.8165 44.6057Z" fill="#1A4B98"/>
<path d="M62.7777 46.8062L62.9646 45.6394C63.0187 45.3018 62.7888 44.9842 62.4511 44.9302L62.4503 44.93C62.1127 44.8759 61.7951 45.1058 61.741 45.4435L61.5541 46.6103C61.5 46.9479 61.7299 47.2655 62.0676 47.3196L62.0684 47.3197C62.406 47.3738 62.7236 47.1439 62.7777 46.8062Z" fill="#1A4B98"/>
<path d="M64.4949 61.4613H60.1016H55.7083L56.5141 57.1372L56.1583 50.708H59.9624H63.7666L63.5499 57.1372L64.4949 61.4613Z" fill="#4CBDFD"/>
<path d="M68.7222 40.2424L68.0339 39.8824L67.3455 39.5232L63.5339 46.7932L60.9255 53.9574L62.5455 54.4899L63.5522 55.3099L66.0122 46.6615L68.7222 40.2424Z" fill="#FFC785"/>
<path d="M69.1074 37.8256C68.9217 37.7285 68.7058 37.7063 68.5042 37.7637C68.3027 37.821 68.1308 37.9536 68.024 38.1339L67.4115 39.1672C67.3547 39.2631 67.318 39.3696 67.3037 39.4801C67.2894 39.5907 67.2977 39.703 67.3282 39.8102C67.3587 39.9174 67.4107 40.0173 67.481 40.1037C67.5514 40.1902 67.6386 40.2614 67.7374 40.3131L67.854 40.3739C67.9529 40.4254 68.0612 40.4563 68.1723 40.4645C68.2835 40.4728 68.3951 40.4583 68.5005 40.422C68.6059 40.3856 68.7027 40.3282 68.7851 40.2531C68.8676 40.1781 68.9338 40.0871 68.9799 39.9856L69.4749 38.8956C69.563 38.7042 69.5739 38.4862 69.5055 38.2869C69.4371 38.0877 69.2945 37.9224 69.1074 37.8256Z" fill="#FFC785"/>
<path d="M63.5837 55.363L65.0987 51.0713L62.4262 49.9238C62.2828 49.8621 62.107 49.9496 62.0345 50.1196L60.6287 53.8638L63.5837 55.363Z" fill="#4CBDFD"/>
<path d="M76.3641 53.9651H67.0016C66.7181 53.9651 66.4883 54.1949 66.4883 54.4784C66.4883 54.7619 66.7181 54.9918 67.0016 54.9918H76.3641C76.6476 54.9918 76.8774 54.7619 76.8774 54.4784C76.8774 54.1949 76.6476 53.9651 76.3641 53.9651Z" fill="#F1873C"/>
<path d="M76.3641 56.3901H67.0016C66.7181 56.3901 66.4883 56.62 66.4883 56.9035C66.4883 57.187 66.7181 57.4168 67.0016 57.4168H76.3641C76.6476 57.4168 76.8774 57.187 76.8774 56.9035C76.8774 56.62 76.6476 56.3901 76.3641 56.3901Z" fill="#F1873C"/>
<path d="M67.1232 59.8368C67.4035 59.8368 67.6307 59.6096 67.6307 59.3293C67.6307 59.049 67.4035 58.8218 67.1232 58.8218C66.8429 58.8218 66.6157 59.049 66.6157 59.3293C66.6157 59.6096 66.8429 59.8368 67.1232 59.8368Z" fill="#F1873C"/>
<path d="M58.0933 40.4822C58.4909 40.4822 58.8133 40.1599 58.8133 39.7622C58.8133 39.3646 58.4909 39.0422 58.0933 39.0422C57.6956 39.0422 57.3733 39.3646 57.3733 39.7622C57.3733 40.1599 57.6956 40.4822 58.0933 40.4822Z" fill="#F1873C"/>
<path d="M60.6983 40.4822C61.0959 40.4822 61.4183 40.1599 61.4183 39.7622C61.4183 39.3646 61.0959 39.0422 60.6983 39.0422C60.3006 39.0422 59.9783 39.3646 59.9783 39.7622C59.9783 40.1599 60.3006 40.4822 60.6983 40.4822Z" fill="#F1873C"/>
<path d="M63.3025 40.4822C63.7002 40.4822 64.0225 40.1599 64.0225 39.7622C64.0225 39.3646 63.7002 39.0422 63.3025 39.0422C62.9049 39.0422 62.5825 39.3646 62.5825 39.7622C62.5825 40.1599 62.9049 40.4822 63.3025 40.4822Z" fill="#F1873C"/>
<path d="M36.4732 58.6248C36.8708 58.6248 37.1932 58.3025 37.1932 57.9048C37.1932 57.5072 36.8708 57.1848 36.4732 57.1848C36.0755 57.1848 35.7532 57.5072 35.7532 57.9048C35.7532 58.3025 36.0755 58.6248 36.4732 58.6248Z" fill="#F1873C"/>
<path d="M39.0774 58.6248C39.4751 58.6248 39.7974 58.3025 39.7974 57.9048C39.7974 57.5072 39.4751 57.1848 39.0774 57.1848C38.6798 57.1848 38.3574 57.5072 38.3574 57.9048C38.3574 58.3025 38.6798 58.6248 39.0774 58.6248Z" fill="#F1873C"/>
<path d="M41.6824 58.6248C42.08 58.6248 42.4024 58.3025 42.4024 57.9048C42.4024 57.5072 42.08 57.1848 41.6824 57.1848C41.2848 57.1848 40.9624 57.5072 40.9624 57.9048C40.9624 58.3025 41.2848 58.6248 41.6824 58.6248Z" fill="#F1873C"/>
<path d="M56.23 76.2266C56.6277 76.2266 56.95 75.9043 56.95 75.5066C56.95 75.109 56.6277 74.7866 56.23 74.7866C55.8324 74.7866 55.51 75.109 55.51 75.5066C55.51 75.9043 55.8324 76.2266 56.23 76.2266Z" fill="#F1873C"/>
<path d="M58.835 76.2266C59.2326 76.2266 59.555 75.9043 59.555 75.5066C59.555 75.109 59.2326 74.7866 58.835 74.7866C58.4373 74.7866 58.115 75.109 58.115 75.5066C58.115 75.9043 58.4373 76.2266 58.835 76.2266Z" fill="#F1873C"/>
<path d="M61.4392 76.2266C61.8369 76.2266 62.1592 75.9043 62.1592 75.5066C62.1592 75.109 61.8369 74.7866 61.4392 74.7866C61.0416 74.7866 60.7192 75.109 60.7192 75.5066C60.7192 75.9043 61.0416 76.2266 61.4392 76.2266Z" fill="#F1873C"/>
<path d="M50.1664 45.3336L45.7789 42.7503C45.6884 42.6962 45.5851 42.6674 45.4797 42.6669H21.9797C21.7913 42.6707 21.609 42.5996 21.4729 42.4691C21.3368 42.3387 21.2581 42.1596 21.2539 41.9711V35.2328C21.2581 35.0444 21.3368 34.8653 21.473 34.735C21.6091 34.6047 21.7913 34.5337 21.9797 34.5378H49.5306C49.8797 34.5378 50.1631 34.8486 50.1631 35.2328L50.1664 45.3336Z" fill="#9DD7C1"/>
<path d="M49.5307 34.5385C49.8798 34.5385 50.1632 34.8493 50.1632 35.2335V45.3343L45.7757 42.751C45.6852 42.6969 45.5819 42.6681 45.4765 42.6676H21.9765C21.788 42.6714 21.6058 42.6003 21.4697 42.4698C21.3336 42.3394 21.2548 42.1603 21.2507 41.9718V35.2335C21.2548 35.0451 21.3336 34.866 21.4697 34.7357C21.6058 34.6054 21.7881 34.5344 21.9765 34.5385H49.5307ZM49.5307 34.1268H21.9773C21.6798 34.123 21.393 34.2374 21.1797 34.4449C20.9665 34.6524 20.8442 34.936 20.8398 35.2335V41.9701C20.8442 42.2677 20.9664 42.5514 21.1797 42.759C21.3929 42.9666 21.6798 43.0812 21.9773 43.0776H45.4773C45.509 43.0777 45.5401 43.0864 45.5673 43.1026L49.9548 45.686L50.5757 46.051V35.2335C50.5757 34.6235 50.1073 34.1268 49.5315 34.1268H49.5307Z" fill="#3A7A54"/>
<path d="M41.703 29.8008L41.7228 29.8035C43.287 30.0169 44.7279 28.922 44.9414 27.3579L44.9441 27.338C45.1575 25.7739 44.0625 24.3329 42.4984 24.1195L42.4786 24.1168C40.9145 23.9034 39.4735 24.9983 39.2601 26.5625L39.2574 26.5823C39.0439 28.1464 40.1389 29.5874 41.703 29.8008Z" fill="#1A4B98"/>
<path d="M39.6982 33.3599C40.6982 33.5065 41.6924 33.6782 42.6874 33.8499C42.7774 32.2724 42.8924 30.6965 42.9866 29.1182C42.1999 29.0204 41.4138 28.9215 40.6282 28.8215C40.3344 30.3376 40.0244 31.8504 39.6982 33.3599Z" fill="#FFC785"/>
<path d="M43.6359 30.7703L43.1175 30.6995C41.9509 30.5403 40.0051 29.3103 40.1642 28.142L40.3142 27.0436C40.352 26.7658 40.4442 26.4981 40.5855 26.2558C40.7268 26.0136 40.9145 25.8015 41.1377 25.6318C41.361 25.4621 41.6155 25.3381 41.8867 25.2667C42.1579 25.1954 42.4405 25.1782 42.7184 25.2161L43.2367 25.287C43.7978 25.3636 44.3055 25.6598 44.6482 26.1107C44.9909 26.5615 45.1406 27.13 45.0642 27.6911L44.9167 28.7895C44.7551 29.9578 44.8042 30.9295 43.6359 30.7703Z" fill="#FFC785"/>
<path d="M42.7346 26.8272L44.4906 27.5193C45.0644 27.7454 45.7129 27.4636 45.939 26.8898L45.9393 26.889C46.1654 26.3153 45.8836 25.6668 45.3098 25.4407L43.5538 24.7486C42.98 24.5225 42.3316 24.8043 42.1055 25.3781L42.1051 25.3789C41.879 25.9526 42.1608 26.6011 42.7346 26.8272Z" fill="#1A4B98"/>
<path d="M41.0783 26.9844L41.6474 26.8916C42.2561 26.7922 42.669 26.2183 42.5696 25.6096L42.5695 25.6088C42.4702 25.0001 41.8962 24.5872 41.2875 24.6866L40.7184 24.7795C40.1097 24.8788 39.6968 25.4528 39.7962 26.0614L39.7963 26.0622C39.8957 26.6709 40.4696 27.0838 41.0783 26.9844Z" fill="#1A4B98"/>
<path d="M40.9106 27.9166C40.8273 28.5208 40.3156 28.8399 39.7665 28.7241C39.4913 28.6693 39.2468 28.5129 39.0817 28.2861C38.9165 28.0593 38.8426 27.7787 38.8748 27.4999C38.954 26.8966 39.4698 26.5774 40.0198 26.6916C40.2953 26.7461 40.54 26.9025 40.7052 27.1296C40.8703 27.3567 40.9437 27.6378 40.9106 27.9166Z" fill="#FFC785"/>
<path d="M36.521 42.665H45.3076V31.9117H36.521V42.665Z" fill="#65D653"/>
<path d="M33.5743 46.9405L32.7993 46.8872L32.0251 46.8338L32.5735 38.6438L36.6985 32.2322L38.1035 33.1997L39.5076 34.1672L34.6176 40.0513L33.5743 46.9405Z" fill="#FFC785"/>
<path d="M32.6397 49.2022C32.4305 49.188 32.2346 49.0941 32.0925 48.9399C31.9504 48.7856 31.8727 48.5828 31.8756 48.3731L31.8931 47.1756C31.8946 47.0641 31.9189 46.9541 31.9644 46.8523C32.0099 46.7505 32.0757 46.659 32.1577 46.5835C32.2398 46.508 32.3364 46.4501 32.4416 46.4131C32.5468 46.3762 32.6585 46.3612 32.7697 46.3689L32.8997 46.3781C33.0107 46.3857 33.119 46.4159 33.2179 46.4668C33.3169 46.5176 33.4044 46.588 33.4753 46.6738C33.5461 46.7595 33.5988 46.8588 33.6301 46.9656C33.6614 47.0723 33.6706 47.1843 33.6572 47.2947L33.5097 48.4831C33.4844 48.6916 33.38 48.8824 33.2182 49.0162C33.0563 49.15 32.8493 49.2166 32.6397 49.2022Z" fill="#FFC785"/>
<path d="M39.6377 34.2109L36.5668 38.35L33.7502 36.2575C33.5985 36.145 33.5835 35.9084 33.716 35.7292L36.5493 31.915L39.6377 34.2109Z" fill="#65D653"/>
<path d="M54.17 26.5332L54.7875 27.0049L55.4041 27.4765L50.4325 34.0082L43.3091 35.6724L43.0408 33.9882L42.7725 32.304L49.5025 31.7074L54.17 26.5332Z" fill="#FFC785"/>
<path d="M56.1967 25.161C56.3633 25.2885 56.4747 25.4748 56.5082 25.6819C56.5417 25.8889 56.4946 26.1009 56.3767 26.2744L55.7026 27.2635C55.6398 27.3557 55.559 27.4341 55.4649 27.4939C55.3708 27.5537 55.2656 27.5938 55.1555 27.6116C55.0455 27.6293 54.933 27.6245 54.8248 27.5973C54.7167 27.5702 54.6153 27.5212 54.5267 27.4535L54.4226 27.3744C54.3339 27.3067 54.2599 27.2217 54.2052 27.1245C54.1505 27.0272 54.1162 26.9199 54.1044 26.809C54.0927 26.698 54.1036 26.5859 54.1367 26.4793C54.1698 26.3728 54.2242 26.2741 54.2967 26.1894L55.0751 25.2794C55.2114 25.1199 55.4037 25.0187 55.6123 24.9967C55.821 24.9747 56.0301 25.0335 56.1967 25.161Z" fill="#FFC785"/>
<path d="M43.2709 36.0183L48.3493 35.1433L47.7501 31.6816C47.7184 31.4958 47.5143 31.3758 47.2943 31.4141L42.6143 32.2208L43.2709 36.0183Z" fill="#65D653"/>
<path d="M31.6873 36.1792H23.4264C23.1429 36.1792 22.9131 36.409 22.9131 36.6925C22.9131 36.976 23.1429 37.2059 23.4264 37.2059H31.6873C31.9708 37.2059 32.2006 36.976 32.2006 36.6925C32.2006 36.409 31.9708 36.1792 31.6873 36.1792Z" fill="#F1873C"/>
<path d="M30.0998 38.7725H23.4264C23.1429 38.7725 22.9131 39.0023 22.9131 39.2858C22.9131 39.5693 23.1429 39.7991 23.4264 39.7991H30.0998C30.3833 39.7991 30.6131 39.5693 30.6131 39.2858C30.6131 39.0023 30.3833 38.7725 30.0998 38.7725Z" fill="#F1873C"/>
<defs>
<linearGradient id="paint0_linear_3340_56879" x1="49.4251" y1="89.9815" x2="49.4251" y2="34.449" gradientUnits="userSpaceOnUse">
<stop stop-color="#CDA12F"/>
<stop offset="1" stop-color="#F1F29D"/>
</linearGradient>
</defs>
</svg>
