<svg width="101" height="101" viewBox="0 0 101 101" fill="none" xmlns="http://www.w3.org/2000/svg">
<path d="M10.1946 55.6601C9.30259 63.4698 10.3163 72.1665 17.4849 76.7866C20.5428 78.7582 24.3418 79.932 27.989 80.0104H80.7595C100.601 60.5353 82.792 57.0506 82.3143 54.057C81.8366 51.0633 84.7169 48.7432 85.5655 45.9555C87.548 39.4421 87.2328 32.6061 81.579 28.0319C76.4337 23.8727 71.0441 24.097 65.4969 27.2082C61.4245 29.4916 57.0511 32.8662 52.3601 30.0301C50.8921 28.7796 49.7191 27.2357 48.4645 25.8435C44.6813 21.6427 40.1621 17.7454 33.7571 17.7454C21.6224 18.4448 16.8397 33.1138 19.5732 43.2586C19.9325 44.5925 20.6128 46.9684 19.4157 48.1055C18.6487 48.8341 17.3482 48.6891 16.3787 48.7374C12.1904 48.9358 10.6539 51.646 10.1946 55.6601Z" fill="#ECEBF2"/>
<path d="M18.432 29.7874H23.6006C23.8336 29.7874 24.0225 29.5985 24.0225 29.3655V24.1968C24.0225 23.9639 23.8336 23.775 23.6006 23.775H18.432C18.199 23.775 18.0101 23.9639 18.0101 24.1968V29.3655C18.0101 29.5985 18.199 29.7874 18.432 29.7874Z" fill="#1A4B97"/>
<path d="M19.4868 33.7637C20.5456 33.7746 21.6026 33.8113 22.6605 33.8471C22.5305 32.1965 22.4271 30.5433 22.3004 28.8918C21.4701 28.9018 20.6398 28.9102 19.8094 28.9169C19.7194 30.5364 19.6119 32.152 19.4868 33.7637Z" fill="#FFC785"/>
<path d="M19.8843 30.5154H23.3665C24.018 30.5154 24.5461 29.9872 24.5461 29.3358V26.057C24.5461 25.4055 24.018 24.8774 23.3665 24.8774H19.8843C19.2328 24.8774 18.7047 25.4055 18.7047 26.057V29.3358C18.7047 29.9872 19.2328 30.5154 19.8843 30.5154Z" fill="#FFC785"/>
<path d="M18.8949 28.8931H19.9537C20.1866 28.8931 20.3755 28.7042 20.3755 28.4712V24.9007C20.3755 24.6677 20.1866 24.4789 19.9537 24.4789H18.8949C18.6619 24.4789 18.4731 24.6677 18.4731 24.9007V28.4712C18.4731 28.7042 18.6619 28.8931 18.8949 28.8931Z" fill="#1A4B97"/>
<path d="M24.0933 26.7853C25.004 26.7853 25.7423 26.047 25.7423 25.1363C25.7423 24.2256 25.004 23.4873 24.0933 23.4873C23.1826 23.4873 22.4443 24.2256 22.4443 25.1363C22.4443 26.047 23.1826 26.7853 24.0933 26.7853Z" fill="#1A4B97"/>
<path d="M21.9061 26.7853C22.8168 26.7853 23.555 26.047 23.555 25.1363C23.555 24.2256 22.8168 23.4873 21.9061 23.4873C20.9953 23.4873 20.2571 24.2256 20.2571 25.1363C20.2571 26.047 20.9953 26.7853 21.9061 26.7853Z" fill="#1A4B97"/>
<path d="M18.4773 28.5668C18.4861 28.5645 18.4953 28.5639 18.5043 28.5652C18.5134 28.5665 18.522 28.5697 18.5298 28.5744C18.5376 28.5792 18.5444 28.5854 18.5497 28.5929C18.555 28.6003 18.5587 28.6087 18.5606 28.6177C18.6515 29.007 20.453 29.9707 20.6765 30.0499C20.7957 29.9557 21.0099 29.7723 21.0674 29.5972C21.1391 29.3913 21.0024 28.6802 20.9524 28.4359C20.2438 27.8098 19.1584 26.9312 18.8883 26.922C18.8704 26.9211 18.8536 26.9133 18.8415 26.9002C18.8293 26.8871 18.8228 26.8698 18.8232 26.852C18.8234 26.8431 18.8254 26.8343 18.8291 26.8262C18.8328 26.8181 18.838 26.8107 18.8445 26.8047C18.8511 26.7986 18.8587 26.7939 18.8671 26.7909C18.8755 26.7878 18.8844 26.7865 18.8933 26.7869C19.2759 26.8003 20.6706 28.0074 21.0391 28.3317C21.4217 28.2484 22.7898 27.9666 23.7118 27.9666C24.0294 27.9666 24.6697 28.4518 24.6697 28.4518C24.6697 28.4518 24.6322 29.5355 24.6697 29.7081C24.7072 29.8806 24.0486 30.8819 23.6743 30.9194C22.0278 31.0861 20.9841 30.4134 20.684 30.1866H20.6773H20.6715C20.5581 30.1774 18.5448 29.1462 18.4289 28.6477C18.4251 28.6306 18.4279 28.6126 18.4369 28.5976C18.4459 28.5825 18.4604 28.5715 18.4773 28.5668Z" fill="#DEE9F6"/>
<path d="M26.5542 37.0029L28.0973 40.6994L31.0668 38.0333L32.6424 39.0596L27.5954 44.2791L23.012 37.7207L26.5542 37.0029Z" fill="#FFC785"/>
<path d="M32.8393 36.0614C33.0743 36.1592 33.2627 36.3435 33.3657 36.5762C33.4687 36.8089 33.4784 37.0723 33.3929 37.3119L32.9085 38.6783C32.8632 38.8054 32.7925 38.922 32.7007 39.0209C32.6089 39.1198 32.4979 39.1989 32.3745 39.2535C32.2511 39.3081 32.1179 39.337 31.983 39.3385C31.848 39.3399 31.7142 39.3138 31.5897 39.2619L31.4438 39.201C31.3183 39.1494 31.2047 39.0727 31.1101 38.9755C31.0154 38.8783 30.9416 38.7628 30.8934 38.636C30.8451 38.5092 30.8233 38.3739 30.8294 38.2383C30.8354 38.1028 30.8692 37.9699 30.9286 37.848L31.5597 36.5425C31.6706 36.3135 31.8652 36.1359 32.1034 36.0463C32.3416 35.9568 32.605 35.9622 32.8393 36.0614Z" fill="#FFC785"/>
<path d="M24.573 32.3239L21.8461 33.356C21.7299 33.3999 21.6237 33.4667 21.5339 33.5525C21.4441 33.6383 21.3724 33.7412 21.3232 33.8552C21.274 33.9693 21.2482 34.092 21.2473 34.2162C21.2465 34.3404 21.2707 34.4635 21.3184 34.5782L23.5301 39.9136L23.8385 39.8194C24.3162 39.6751 24.8056 39.5351 25.2791 39.4025C25.4508 39.3533 25.6217 39.305 25.7926 39.255C26.3128 39.1057 26.7096 38.9849 27.0856 38.8657L27.4124 38.7614L25.7943 32.9475C25.7602 32.823 25.7005 32.707 25.6191 32.6069C25.5376 32.5068 25.4362 32.4248 25.3213 32.3661C25.2063 32.3074 25.0804 32.2734 24.9516 32.2661C24.8227 32.2589 24.6938 32.2785 24.573 32.3239Z" fill="#95AFDA"/>
<path d="M25.9751 44.7183H15.6861L15.6861 33.2972C15.6861 32.9912 15.8077 32.6977 16.024 32.4813C16.2404 32.2649 16.5339 32.1434 16.8399 32.1434H24.8213C25.1273 32.1434 25.4208 32.2649 25.6372 32.4813C25.8535 32.6977 25.9751 32.9912 25.9751 33.2972V44.7183Z" fill="#95AFDA"/>
<path d="M15.4675 75.2671L16.5821 75.4172C16.6281 75.4228 16.6725 75.4377 16.7125 75.4611C16.7525 75.4845 16.7873 75.5158 16.8148 75.5531C16.8423 75.5904 16.8618 75.633 16.8723 75.6781C16.8827 75.7233 16.8838 75.7701 16.8755 75.8157L16.4762 78.4942H14.6555L14.989 75.6456C15.0046 75.533 15.0631 75.4308 15.1522 75.3603C15.2414 75.2897 15.3543 75.2564 15.4675 75.2671Z" fill="#FFC785"/>
<path d="M20.7111 79.5875L14.5354 79.5983L14.6554 78.4971H16.4762C16.4762 78.4971 20.7903 78.8639 20.7111 79.5875Z" fill="#FFC785"/>
<path d="M14.7198 77.9132L14.5364 79.5989L20.8005 79.5881C20.9614 78.1017 16.5713 77.9099 16.5713 77.9099L14.7198 77.9132Z" fill="#1F1A55"/>
<path d="M18.1736 76.3281L16.127 76.2289L14.0803 76.1288L15.9044 60.5695L15.3567 44.9692C15.3617 44.83 15.4775 44.5191 15.6176 44.5149H21.7691L20.622 60.6895L18.1736 76.3281Z" fill="#181720"/>
<path d="M25.8565 74.4246L25.5581 78.6129H23.739L23.8907 74.6855C23.8931 74.6324 23.9135 74.5817 23.9485 74.5417C23.9835 74.5017 24.031 74.4748 24.0833 74.4654L25.5989 74.1945C25.6317 74.1883 25.6655 74.1897 25.6977 74.1986C25.7299 74.2075 25.7596 74.2237 25.7845 74.246C25.8094 74.2682 25.8288 74.2959 25.8413 74.3269C25.8538 74.3579 25.859 74.3913 25.8565 74.4246Z" fill="#FFC785"/>
<path d="M29.8732 79.7118H23.7041L23.7383 78.6089H25.5573C25.5573 78.6089 29.8957 78.984 29.8732 79.7118Z" fill="#FFC785"/>
<path d="M23.7591 78.0251L23.7065 79.7125H29.9631C30.009 78.2244 25.6081 78.0251 25.6081 78.0251H23.7591Z" fill="#262365"/>
<path d="M27.0538 76.1886L24.9955 76.2086L22.9372 76.2294L22.9472 60.64L19.6868 44.5171H25.6674C25.8933 44.5171 26.0843 44.6096 26.1143 44.833L27.7657 59.6605L27.0538 76.1886Z" fill="#262432"/>
<path d="M14.2546 36.0735L16.9515 38.3702L15.5335 40.2018L20.3136 45.7714L19.6776 46.4642L19.0415 47.157L11.8462 40.2726L14.2546 36.0735Z" fill="#FFC785"/>
<path d="M21.7475 48.3653C21.5756 48.5524 21.3388 48.6665 21.0854 48.6843C20.8321 48.7022 20.5816 48.6223 20.3853 48.4612L19.2657 47.5442C19.1607 47.4585 19.0744 47.3521 19.0121 47.2318C18.9498 47.1115 18.9127 46.9797 18.9033 46.8445C18.8938 46.7093 18.9122 46.5736 18.9571 46.4457C19.0021 46.3179 19.0728 46.2006 19.1648 46.1011L19.2715 45.9844C19.3628 45.8848 19.4735 45.8049 19.5967 45.7496C19.72 45.6943 19.8533 45.6647 19.9884 45.6627C20.1234 45.6607 20.2575 45.6862 20.3824 45.7378C20.5073 45.7894 20.6203 45.866 20.7146 45.9627L21.7266 46.9998C21.9041 47.1815 22.0052 47.4244 22.0091 47.6784C22.013 47.9324 21.9193 48.1783 21.7475 48.3653Z" fill="#FFC785"/>
<path d="M19.3617 33.6176L17.3834 32.4021C17.2456 32.3176 17.0923 32.2616 16.9325 32.2374C16.7727 32.2133 16.6097 32.2215 16.4531 32.2615C16.2965 32.3015 16.1495 32.3726 16.0209 32.4705C15.8923 32.5684 15.7847 32.6912 15.7044 32.8314L12.9817 37.5983L13.2443 37.785C13.6511 38.0743 14.0613 38.3761 14.4589 38.6679L14.8891 38.9838C15.3259 39.3031 15.6644 39.5449 15.9887 39.7683L16.2705 39.9625L19.6968 35.3699C19.7977 35.2356 19.8694 35.0817 19.9073 34.918C19.9452 34.7544 19.9484 34.5846 19.9169 34.4196C19.8853 34.2546 19.8196 34.098 19.724 33.9599C19.6284 33.8218 19.505 33.7052 19.3617 33.6176Z" fill="#95AFDA"/>
<path d="M31.372 38.2831L31.2812 38.2273C31.2633 38.2164 31.2477 38.202 31.2355 38.185C31.2232 38.1681 31.2144 38.1488 31.2095 38.1284C31.2047 38.108 31.204 38.0869 31.2074 38.0662C31.2109 38.0456 31.2184 38.0258 31.2295 38.008L33.4945 34.3399C33.5049 34.3202 33.5192 34.3028 33.5364 34.2887C33.5536 34.2746 33.5735 34.2641 33.5949 34.2578C33.6163 34.2515 33.6387 34.2495 33.6608 34.252C33.683 34.2546 33.7044 34.2615 33.7238 34.2724L33.8138 34.3283C33.8322 34.3408 33.8479 34.3568 33.86 34.3755C33.8721 34.3942 33.8803 34.4151 33.8842 34.437C33.8881 34.4589 33.8876 34.4814 33.8826 34.5031C33.8777 34.5248 33.8685 34.5453 33.8555 34.5634L31.5913 38.2314C31.5803 38.2492 31.5659 38.2647 31.5489 38.2769C31.5319 38.2892 31.5127 38.2979 31.4924 38.3027C31.472 38.3075 31.4509 38.3083 31.4302 38.3049C31.4096 38.3015 31.3898 38.2941 31.372 38.2831Z" fill="#1A4B97"/>
<path d="M32.3818 36.7571C32.4953 36.7899 32.5919 36.865 32.6518 36.9668C32.7117 37.0687 32.7302 37.1897 32.7036 37.3048L32.5518 37.9617C32.5377 38.0235 32.5111 38.0816 32.4736 38.1326C32.4361 38.1837 32.3885 38.2264 32.3338 38.2583C32.2791 38.2902 32.2184 38.3105 32.1556 38.318C32.0927 38.3255 32.0289 38.32 31.9683 38.3019L31.8974 38.2819C31.8372 38.2637 31.7813 38.2335 31.7332 38.1931C31.6851 38.1527 31.6457 38.1028 31.6174 38.0467C31.5892 37.9905 31.5727 37.9291 31.5689 37.8664C31.5652 37.8036 31.5743 37.7408 31.5956 37.6816L31.8182 37.0447C31.8579 36.934 31.9383 36.8427 32.043 36.7892C32.1477 36.7358 32.2689 36.7243 32.3818 36.7571Z" fill="#FFC785"/>
<path d="M19.9753 27.942C19.9753 28.5806 19.4885 28.9849 18.9016 28.9424C18.6065 28.9253 18.3288 28.7969 18.1248 28.5831C17.9207 28.3692 17.8053 28.0859 17.802 27.7903C17.802 27.1526 18.2889 26.7474 18.8766 26.7899C19.1716 26.8072 19.449 26.9357 19.6529 27.1495C19.8568 27.3634 19.9721 27.6466 19.9753 27.942Z" fill="#FFC785"/>
<path d="M75.9212 23.6699H73.9663C72.6895 23.6699 71.6545 24.7049 71.6545 25.9817V27.9366C71.6545 29.2133 72.6895 30.2483 73.9663 30.2483H75.9212C77.1979 30.2483 78.2329 29.2133 78.2329 27.9366V25.9817C78.2329 24.7049 77.1979 23.6699 75.9212 23.6699Z" fill="#1A4B97"/>
<path d="M76.6797 34.601C75.5217 34.6127 74.3646 34.6527 73.2075 34.6944C73.3501 32.8879 73.4634 31.0788 73.601 29.2756C74.5097 29.2862 75.4184 29.2954 76.3271 29.3031C76.4254 31.068 76.5463 32.8345 76.6797 34.601Z" fill="#FFC785"/>
<path d="M72.6115 31.0472H73.2109C74.5639 31.0472 76.9623 29.9501 76.9623 28.598V27.3266C76.9623 26.6773 76.7043 26.0545 76.2452 25.5953C75.786 25.1361 75.1632 24.8782 74.5139 24.8782H73.9145C73.5929 24.8781 73.2744 24.9413 72.9772 25.0643C72.6801 25.1873 72.4101 25.3676 72.1826 25.595C71.9552 25.8224 71.7747 26.0923 71.6516 26.3895C71.5285 26.6866 71.4652 27.005 71.4652 27.3266V28.5946C71.4618 29.9501 71.2559 31.0472 72.6115 31.0472Z" fill="#FFC785"/>
<path d="M73.6367 24.2229L71.5336 24.7371C70.8467 24.9051 70.426 25.5982 70.5939 26.2851L70.5941 26.2859C70.7621 26.9729 71.4552 27.3936 72.1421 27.2256L74.2452 26.7114C74.9321 26.5434 75.3529 25.8504 75.1849 25.1634L75.1847 25.1626C75.0167 24.4756 74.3237 24.0549 73.6367 24.2229Z" fill="#1A4B97"/>
<path d="M76.8484 24.6971L76.2155 24.5032C75.5393 24.2959 74.8232 24.6761 74.616 25.3522L74.6157 25.353C74.4085 26.0292 74.7886 26.7453 75.4648 26.9525L76.0976 27.1465C76.7738 27.3537 77.4899 26.9736 77.6972 26.2975L77.6974 26.2967C77.9046 25.6205 77.5245 24.9044 76.8484 24.6971Z" fill="#1A4B97"/>
<path d="M60.696 40.6279L60.5059 41.5708L60.3167 42.5161L69.6378 42.9546L71.9853 39.9918C72.7281 39.0056 73.2575 38.1444 72.5998 37.2357C72.4429 37.0215 72.2428 36.8426 72.0123 36.7107C71.7819 36.5789 71.5262 36.497 71.262 36.4704C70.9978 36.4439 70.731 36.4732 70.4789 36.5565C70.2268 36.6398 69.995 36.7752 69.7987 36.954L67.8487 40.4795L60.696 40.6279Z" fill="#FFC785"/>
<path d="M57.9391 40.7006C57.8648 40.9372 57.8839 41.1932 57.9924 41.4161C58.1009 41.6391 58.2907 41.812 58.5227 41.8994L59.8482 42.3996C59.9717 42.4459 60.1034 42.4666 60.2351 42.4603C60.3669 42.454 60.496 42.421 60.6146 42.3632C60.7332 42.3054 60.8387 42.224 60.9248 42.1241C61.0109 42.0241 61.0757 41.9077 61.1154 41.7819L61.1612 41.6343C61.2008 41.5085 61.2143 41.3759 61.2008 41.2446C61.1874 41.1134 61.1474 40.9863 61.0831 40.871C61.0189 40.7558 60.9319 40.6548 60.8273 40.5744C60.7228 40.4939 60.6029 40.4356 60.4751 40.403L59.1062 40.0512C58.8655 39.9894 58.6103 40.0224 58.3932 40.1432C58.176 40.264 58.0135 40.4635 57.9391 40.7006Z" fill="#FFC785"/>
<path d="M59.5738 40.425C59.5695 40.4884 59.5893 40.551 59.6294 40.6002C59.6695 40.6495 59.7268 40.6816 59.7898 40.6901L60.1507 40.7368C60.2916 40.7551 60.9277 40.871 60.9377 40.7285V40.6885C60.9477 40.5459 60.3291 40.2041 60.1874 40.2008L59.8239 40.1941C59.7608 40.1939 59.6999 40.2176 59.6535 40.2604C59.6072 40.3033 59.5787 40.3621 59.5738 40.425Z" fill="#FFC785"/>
<path d="M70.0439 34.0438L68.2708 38.3788L72.2957 39.9828C72.5124 40.0662 72.7725 39.9311 72.8792 39.6752L74.3081 35.8028C74.5474 34.8266 74.4031 33.9379 73.5278 33.5895L72.2773 33.0893C71.8543 32.9231 71.3829 32.9301 70.9649 33.1087C70.547 33.2873 70.2162 33.6232 70.0439 34.0438Z" fill="#EAEA9B"/>
<path d="M71.4141 32.9299H79.2288C79.5286 32.9299 79.8162 33.049 80.0282 33.261C80.2402 33.473 80.3593 33.7606 80.3593 34.0604V45.2589H70.2837V34.0579C70.2844 33.7585 70.4037 33.4716 70.6157 33.2601C70.8276 33.0487 71.1148 32.9299 71.4141 32.9299Z" fill="#EEEE9E"/>
<path d="M81.835 49.4984L82.7245 49.4717L83.6149 49.445L83.3489 40.0356L82.0543 37.3795C81.9466 37.1573 81.7931 36.9604 81.604 36.8018C81.4148 36.6431 81.1942 36.5262 80.9567 36.4588C80.7192 36.3914 80.4701 36.375 80.2257 36.4107C79.9814 36.4464 79.7474 36.5334 79.5391 36.6659C79.3308 36.7972 79.1525 36.971 79.0159 37.1759C78.8793 37.3808 78.7875 37.6122 78.7464 37.855C78.7054 38.0978 78.716 38.3465 78.7776 38.5849C78.8392 38.8233 78.9504 39.0461 79.1039 39.2386L80.948 41.5578L81.835 49.4984Z" fill="#FFC785"/>
<path d="M82.8054 52.1318C83.0458 52.1244 83.2743 52.0253 83.4439 51.8547C83.6135 51.6842 83.7114 51.4552 83.7175 51.2148L83.7508 49.8426C83.754 49.7147 83.7312 49.5875 83.6836 49.4688C83.6359 49.3501 83.5646 49.2423 83.474 49.1521C83.3833 49.0619 83.2752 48.9912 83.1562 48.9442C83.0372 48.8972 82.9099 48.875 82.7821 48.8789H82.632C82.5042 48.8828 82.3786 48.9128 82.2627 48.9669C82.1469 49.021 82.0433 49.0982 81.9583 49.1937C81.8732 49.2891 81.8086 49.401 81.7682 49.5223C81.7278 49.6436 81.7125 49.7718 81.7233 49.8993L81.8392 51.2664C81.8588 51.507 81.9699 51.7309 82.1497 51.8919C82.3295 52.0529 82.5642 52.1388 82.8054 52.1318Z" fill="#FFC785"/>
<path d="M76.8391 35.8399L78.8232 39.6822L82.4021 37.834C82.5938 37.7348 82.6522 37.4697 82.5371 37.2421L80.7648 33.8116C80.6693 33.6267 80.5384 33.4624 80.3794 33.3282C80.2204 33.1939 80.0365 33.0923 79.8382 33.0291C79.64 32.9659 79.4312 32.9424 79.2239 32.96C79.0165 32.9775 78.8146 33.0358 78.6298 33.1313L77.5194 33.7049C77.3345 33.8004 77.1702 33.9313 77.0359 34.0903C76.9017 34.2493 76.8 34.4332 76.7369 34.6314C76.6737 34.8297 76.6502 35.0385 76.6677 35.2458C76.6853 35.4532 76.7435 35.6551 76.8391 35.8399Z" fill="#EEEE9E"/>
<path d="M70.994 74.4858L71.4517 78.6375L73.2599 78.5674L72.9572 74.6659C72.9527 74.6132 72.9304 74.5636 72.8941 74.5252C72.8578 74.4867 72.8095 74.4617 72.7572 74.4542L71.2407 74.2466C71.2078 74.2416 71.1742 74.2443 71.1425 74.2544C71.1109 74.2646 71.0819 74.2819 71.058 74.305C71.0342 74.3282 71.0159 74.3566 71.0048 74.3879C70.9937 74.4193 70.99 74.4528 70.994 74.4858Z" fill="#FFC785"/>
<path d="M73.2183 77.9878L73.335 79.6643L67.1168 79.9052C67.0142 78.4263 71.3801 78.0587 71.3801 78.0587L73.2183 77.9878Z" fill="#292763"/>
<path d="M69.8721 76.2866L71.9187 76.2274L73.9654 76.1683L72.7724 61.2391L76.4922 45.2871L70.5457 45.1104C70.3215 45.1104 70.1289 45.1937 70.0922 45.4113L68.0081 60.1203L69.8721 76.2866Z" fill="#181720"/>
<path d="M80.0694 75.617L79.0307 75.8012C78.9876 75.8086 78.9463 75.8246 78.9095 75.8482C78.8727 75.8719 78.8411 75.9028 78.8165 75.939C78.7919 75.9752 78.7748 76.016 78.7664 76.0589C78.7579 76.1018 78.7582 76.146 78.7673 76.1889L79.2158 78.6832L80.9139 78.619L80.5313 75.9579C80.5146 75.8518 80.4568 75.7565 80.3704 75.6927C80.2839 75.6288 80.1758 75.6016 80.0694 75.617Z" fill="#FFC785"/>
<path d="M80.837 78.0762L81.0487 79.6409L75.2331 79.856C75.0306 78.483 79.108 78.142 79.108 78.142L80.837 78.0762Z" fill="#231E53"/>
<path d="M77.5633 76.7209L79.474 76.5491L81.3914 76.3766L79.3906 61.3707L80.3969 45.8647C80.3969 45.7255 80.2902 45.4129 80.1468 45.4045L74.0286 45.2136L74.6955 61.3499L77.5633 76.7209Z" fill="#262432"/>
<path d="M76.9572 26.9902C76.5704 27.0044 75.2899 28.3816 74.9565 28.7501C74.5555 28.6667 73.2058 28.3874 72.2963 28.3874C71.9786 28.3874 71.3384 28.8726 71.3384 28.8726C71.3384 28.8726 71.3751 29.9564 71.3384 30.129C71.3017 30.3015 71.9586 31.3027 72.3338 31.3403C73.9802 31.507 75.024 30.8342 75.3241 30.6075H75.3308H75.3366C75.4467 30.5975 76.7288 29.743 76.843 29.2536C76.8453 29.2368 76.8412 29.2197 76.8315 29.2057C76.8218 29.1917 76.8073 29.1818 76.7908 29.178C76.7742 29.1741 76.7568 29.1766 76.742 29.1849C76.7271 29.1931 76.7159 29.2067 76.7105 29.2228C76.6188 29.6196 75.5008 30.3957 75.3299 30.4683C75.2099 30.374 75.0015 30.1906 74.9406 30.0164C74.8664 29.8047 75.014 29.0544 75.059 28.836C75.6834 28.1482 76.6946 27.1336 76.9581 27.1236C76.9761 27.123 76.9931 27.1152 77.0054 27.1021C77.0177 27.089 77.0244 27.0716 77.0239 27.0536C77.0231 27.0365 77.0157 27.0204 77.0033 27.0086C76.9908 26.9968 76.9744 26.9902 76.9572 26.9902Z" fill="#DEE9F6"/>
<path d="M76.1455 28.2307C76.1455 28.9301 76.6782 29.3728 77.3201 29.3261C77.6428 29.3066 77.9461 29.1658 78.1694 28.9321C78.3926 28.6983 78.5193 28.3888 78.5239 28.0656C78.5281 27.3678 77.9912 26.9252 77.3485 26.9702C77.0257 26.9891 76.7221 27.1297 76.4989 27.3636C76.2757 27.5975 76.1494 27.9074 76.1455 28.2307Z" fill="#FFC785"/>
<g style="mix-blend-mode:soft-light" opacity="0.6">
<path d="M33.814 34.3294L33.7239 34.2735C33.7045 34.2626 33.6831 34.2557 33.661 34.2532C33.6388 34.2507 33.6164 34.2526 33.5951 34.2589C33.5737 34.2652 33.5538 34.2757 33.5366 34.2898C33.5193 34.3039 33.5051 34.3214 33.4947 34.3411L32.4793 35.9859C32.2888 35.9812 32.1009 36.0316 31.9383 36.1309C31.7756 36.2303 31.6451 36.3744 31.5623 36.5461L30.9287 37.8483C30.869 37.9706 30.8355 38.104 30.8303 38.2401L28.0943 40.7002L27.2981 38.7928L27.409 38.7578L25.9751 33.5966V33.2957C25.9752 33.1441 25.9454 32.9939 25.8875 32.8539C25.8296 32.7138 25.7446 32.5865 25.6375 32.4793C25.5303 32.372 25.4031 32.287 25.263 32.2289C25.123 32.1709 24.9729 32.141 24.8213 32.141H22.5338C22.5037 31.7248 22.4743 31.3079 22.4454 30.8906C22.8513 30.952 23.2634 30.9615 23.6717 30.9189C24.046 30.8814 24.7046 29.8818 24.6671 29.7076C24.6296 29.5334 24.6671 28.4513 24.6671 28.4513C24.6671 28.4513 24.6196 28.4154 24.5454 28.3679V26.7223C24.7754 26.6572 24.9885 26.5429 25.17 26.3873C25.3515 26.2316 25.4969 26.0384 25.5963 25.821C25.6957 25.6036 25.7466 25.3671 25.7455 25.1281C25.7444 24.889 25.6914 24.653 25.59 24.4365C25.4887 24.22 25.3415 24.0281 25.1586 23.8741C24.9757 23.7202 24.7616 23.6078 24.531 23.5448C24.3004 23.4818 24.0588 23.4698 23.8231 23.5094C23.5873 23.5491 23.363 23.6395 23.1657 23.7745H22.8322C22.5585 23.5876 22.2349 23.4877 21.9035 23.4877C21.5722 23.4877 21.2485 23.5876 20.9748 23.7745H18.4322C18.3211 23.7756 18.215 23.8205 18.1369 23.8995C18.0588 23.9785 18.0151 24.0852 18.0153 24.1963V27.1508C17.8742 27.3338 17.8003 27.5599 17.8061 27.791C17.8067 28.025 17.8798 28.253 18.0153 28.4438V29.365C18.0153 29.476 18.0591 29.5825 18.1371 29.6615C18.2151 29.7404 18.3212 29.7855 18.4322 29.7868H18.794C18.8719 29.9752 18.9973 30.1401 19.1581 30.2655C19.3188 30.3909 19.5093 30.4724 19.711 30.5021C19.676 31.0484 19.6396 31.5942 19.6018 32.1394H16.8399C16.5542 32.1397 16.2788 32.246 16.0671 32.4378C15.9184 32.5403 15.7945 32.6747 15.7044 32.8313L12.9817 37.5982L13.2443 37.7849L13.2668 37.8007L11.8496 40.2767L15.6894 43.9506V44.5175H15.6244C15.4844 44.5175 15.3685 44.8326 15.3635 44.9719L15.9112 60.5721L14.0838 76.1298L14.9258 76.1706L14.7232 77.913L14.6757 78.3498L14.659 78.4974L14.539 79.5986L19.8744 79.5895H20.708H20.7973C20.9581 78.1031 16.5681 77.9113 16.5681 77.9113H16.5598L16.8057 76.2632L18.1737 76.3299L20.6222 60.6905L21.2299 52.143L22.9473 60.6363L22.9373 76.2257L23.8318 76.2165L23.7592 78.0255L23.7459 78.4624L23.7401 78.6099L23.7059 79.7128H29.9633C30.0092 78.2248 25.6083 78.0255 25.6083 78.0255H25.6008L25.7308 76.2015L27.0547 76.189L27.7666 59.6592L26.1143 44.8318C26.1091 44.7856 26.0939 44.741 26.0699 44.7011C26.0459 44.6613 26.0135 44.6271 25.9751 44.6009V41.9615L27.5941 44.2799L32.5635 39.1413C32.7218 39.0242 32.8414 38.8625 32.907 38.6769L33.3913 37.3105C33.4712 37.0844 33.4665 36.8369 33.378 36.6139C33.2896 36.391 33.1235 36.2075 32.9103 36.0976L33.8557 34.567C33.869 34.5488 33.8786 34.5281 33.8837 34.5062C33.8889 34.4842 33.8895 34.4615 33.8857 34.4393C33.8818 34.4171 33.8734 34.3959 33.8611 34.377C33.8488 34.3581 33.8327 34.3419 33.814 34.3294ZM15.5335 40.2025L15.6861 40.0058V40.3792L15.5335 40.2025Z" fill="url(#paint0_linear_3340_56821)"/>
<path d="M83.616 49.3289L83.3492 40.0361L82.3013 37.8861L82.4022 37.8344C82.5939 37.7352 82.6523 37.4701 82.5373 37.2425L80.7649 33.812C80.6429 33.5764 80.4637 33.3753 80.2438 33.227C80.0238 33.0787 79.7702 32.9881 79.5061 32.9633C79.4157 32.9399 79.3227 32.9278 79.2293 32.9275H76.5616C76.4977 32.0194 76.4385 31.1115 76.384 30.2039C76.6944 30.1407 76.9886 30.0145 77.2482 29.8332C77.5079 29.6518 77.7276 29.419 77.8938 29.1493C78.0856 29.0406 78.2452 28.8831 78.3564 28.6927C78.4677 28.5024 78.5267 28.2861 78.5274 28.0656C78.5359 27.78 78.4314 27.5025 78.2364 27.2936V25.9823C78.2364 25.3694 77.9929 24.7816 77.5596 24.3482C77.1262 23.9149 76.5384 23.6714 75.9255 23.6714H73.9664C73.608 23.671 73.2545 23.7541 72.9338 23.9142C72.6131 24.0742 72.3342 24.3068 72.119 24.5934L71.5355 24.736C71.2626 24.8021 71.019 24.9562 70.8423 25.1745C70.6656 25.3927 70.5656 25.6631 70.5578 25.9438C70.5499 26.2245 70.6346 26.5 70.7988 26.7278C70.963 26.9556 71.1975 27.1231 71.4663 27.2044C71.4663 27.2453 71.4663 27.2878 71.4663 27.327V28.595C71.4663 28.6592 71.4663 28.7225 71.4663 28.785C71.3938 28.8351 71.3479 28.8684 71.3479 28.8684C71.3479 28.8684 71.3846 29.9522 71.3479 30.1247C71.3112 30.2973 71.9682 31.2985 72.3433 31.336C72.7141 31.3748 73.088 31.3708 73.4579 31.3244C73.4212 31.8568 73.3837 32.3895 73.3453 32.9225H71.4146C71.2293 32.9224 71.0469 32.968 70.8835 33.0553C70.72 33.1425 70.5806 33.2687 70.4776 33.4227C70.2893 33.5945 70.1413 33.8057 70.0441 34.0412L68.2709 38.3763L68.8778 38.618L67.849 40.4779L60.9147 40.6246C60.7963 40.4629 60.3136 40.2078 60.1902 40.202L59.8268 40.1953C59.7955 40.1953 59.7645 40.2007 59.7351 40.2111L59.1065 40.0519C58.8658 39.9901 58.6106 40.0231 58.3934 40.1439C58.1763 40.2647 58.0138 40.4642 57.9394 40.7013C57.8651 40.9379 57.8841 41.1939 57.9927 41.4168C58.1012 41.6398 58.2909 41.8127 58.5229 41.9001L59.8484 42.4003C60.0008 42.4575 60.1651 42.4753 60.3261 42.452L60.3128 42.517L69.6339 42.9555L70.28 42.1402V45.1639C70.2295 45.186 70.1854 45.2205 70.1519 45.2642C70.1184 45.308 70.0965 45.3595 70.0882 45.414L68.0041 60.1231L69.8648 76.2893L71.1812 76.251L71.3813 78.0609H71.3729C71.3729 78.0609 67.0071 78.4285 67.1096 79.9074L73.3278 79.6665L73.2511 78.5702L73.2395 78.4243L73.2095 77.99L73.0761 76.1968L73.9656 76.171L72.7726 61.2402L74.4016 54.2541L74.6934 61.351L77.5637 76.722L78.84 76.607L79.1143 78.1417H79.1068C79.1068 78.1417 75.0293 78.4835 75.2336 79.8566L81.0492 79.6415L80.9108 78.6194L80.8916 78.4835L80.8366 78.0767L80.6015 76.4469L81.3901 76.376L79.3894 61.3702L80.3956 45.8642C80.3956 45.725 80.2889 45.4123 80.1455 45.404L76.4924 45.2948L75.5104 45.2656H80.3647V40.8222L80.9483 41.5583L81.827 49.3947C81.7464 49.5508 81.7117 49.7266 81.7269 49.9016L81.8428 51.2688C81.8643 51.5078 81.9762 51.7296 82.1557 51.8888C82.3352 52.048 82.5688 52.1327 82.8086 52.1254C83.0485 52.1182 83.2765 52.0196 83.4461 51.8498C83.6157 51.6801 83.7141 51.4519 83.721 51.2121L83.7544 49.8399C83.7587 49.6597 83.7107 49.4822 83.616 49.3289Z" fill="url(#paint1_linear_3340_56821)"/>
</g>
<rect x="52.2783" y="34.8521" width="11.6174" height="9.03577" fill="#C444AF"/>
<rect x="57.2573" y="34.8521" width="1.65963" height="9.03577" fill="#FFE898"/>
<rect x="63.8958" y="38.7246" width="1.29082" height="11.6174" transform="rotate(90 63.8958 38.7246)" fill="#FFE898"/>
<defs>
<linearGradient id="paint0_linear_3340_56821" x1="11.8463" y1="51.6003" x2="33.8848" y2="51.6003" gradientUnits="userSpaceOnUse">
<stop stop-color="#FDF0EE"/>
<stop offset="1" stop-color="#F7AC9C"/>
</linearGradient>
<linearGradient id="paint1_linear_3340_56821" x1="57.8977" y1="51.7881" x2="83.7511" y2="51.7881" gradientUnits="userSpaceOnUse">
<stop stop-color="#FDF0EE"/>
<stop offset="1" stop-color="#F7AC9C"/>
</linearGradient>
</defs>
</svg>
